{"glyphs":{"0":{"ha":799,"x_min":64,"x_max":736,"o":"m 736 408 q 694 168 736 260 q 576 31 652 75 q 401 -14 500 -14 q 225 31 301 -14 q 106 168 149 75 q 64 408 64 260 l 64 581 q 106 821 64 729 q 224 957 148 913 q 399 1001 300 1001 q 575 957 499 1001 q 693 821 650 913 q 736 581 736 729 l 736 408 m 530 610 q 515 744 530 694 q 470 814 499 793 q 399 836 441 836 q 329 814 358 836 q 284 744 299 793 q 269 610 269 694 l 269 380 q 284 245 269 295 q 330 173 300 195 q 401 151 359 151 q 471 173 442 151 q 515 245 500 195 q 530 380 530 295 l 530 610 z "},"1":{"ha":799,"x_min":113,"x_max":549,"o":"m 549 0 l 345 0 l 345 745 l 113 675 l 113 841 l 528 989 l 549 989 l 549 0 z "},"2":{"ha":799,"x_min":46,"x_max":746,"o":"m 746 0 l 66 0 l 66 140 l 385 479 q 459 569 432 530 q 498 640 487 608 q 510 700 510 672 q 478 801 510 764 q 388 837 447 837 q 313 815 344 837 q 267 758 283 794 q 251 675 251 722 l 46 675 q 88 839 46 764 q 208 957 130 913 q 392 1002 286 1002 q 633 926 550 1002 q 715 720 715 851 q 688 591 715 652 q 611 469 661 530 q 494 337 562 407 l 330 165 l 746 165 l 746 0 z "},"3":{"ha":799,"x_min":41,"x_max":734,"o":"m 373 584 q 452 600 420 584 q 498 646 483 616 q 513 716 513 676 q 499 778 513 751 q 457 821 486 805 q 385 837 429 837 q 323 824 352 837 q 276 788 294 811 q 258 732 258 764 l 54 732 q 98 875 54 814 q 216 968 142 935 q 380 1002 290 1002 q 557 969 481 1002 q 676 874 633 937 q 719 720 719 812 q 697 627 719 671 q 634 549 675 583 q 536 494 593 514 q 406 473 478 473 l 267 473 l 267 584 l 373 584 m 267 532 l 406 532 q 548 514 487 532 q 650 463 609 496 q 713 382 692 429 q 734 277 734 335 q 687 120 734 185 q 560 21 640 55 q 380 -14 480 -14 q 256 4 317 -14 q 148 56 196 21 q 70 144 99 90 q 41 271 41 198 l 247 271 q 265 210 247 237 q 314 167 283 183 q 385 151 345 151 q 491 188 452 151 q 529 281 529 224 q 510 364 529 332 q 456 410 491 395 q 373 424 422 424 l 267 424 l 267 532 z "},"4":{"ha":799,"x_min":38,"x_max":761,"o":"m 761 212 l 47 212 l 38 341 l 446 987 l 608 987 l 435 688 l 239 376 l 761 376 l 761 212 m 652 0 l 448 0 l 448 987 l 652 987 l 652 0 z "},"5":{"ha":799,"x_min":68,"x_max":741,"o":"m 92 484 l 149 987 l 708 987 l 708 819 l 317 819 l 294 614 q 352 637 313 624 q 439 650 391 650 q 603 610 536 650 q 706 497 670 571 q 741 317 741 422 q 705 155 741 231 q 594 33 669 79 q 406 -14 519 -14 q 280 6 340 -14 q 173 63 220 26 q 97 155 125 101 q 68 277 69 209 l 271 277 q 312 185 277 218 q 404 151 347 151 q 481 175 452 151 q 524 240 511 199 q 536 330 536 281 q 520 418 536 380 q 469 477 503 456 q 382 498 435 498 q 302 481 330 498 q 255 444 273 464 l 92 484 z "},"6":{"ha":799,"x_min":66,"x_max":753,"o":"m 602 999 l 602 830 l 590 830 q 455 809 514 830 q 354 748 395 788 q 292 651 313 708 q 271 522 271 593 l 271 353 q 289 241 271 286 q 338 174 307 196 q 412 152 370 152 q 484 174 454 152 q 532 236 515 197 q 549 325 549 275 q 531 415 549 376 q 483 476 514 454 q 408 498 452 498 q 330 478 363 498 q 278 427 296 458 q 258 362 260 395 l 198 407 q 220 500 200 455 q 275 583 239 546 q 360 641 311 619 q 472 663 410 663 q 627 617 565 663 q 721 495 690 571 q 753 326 753 418 q 711 153 753 230 q 594 31 669 76 q 417 -14 519 -14 q 273 15 338 -14 q 162 95 209 43 q 91 220 116 147 q 66 382 66 293 l 66 458 q 101 679 66 579 q 202 849 136 778 q 362 960 269 921 q 572 999 456 999 l 602 999 z "},"7":{"ha":799,"x_min":40,"x_max":742,"o":"m 742 873 l 363 0 l 147 0 l 526 823 l 40 823 l 40 987 l 742 987 l 742 873 z "},"8":{"ha":799,"x_min":63,"x_max":735,"o":"m 735 272 q 691 114 735 178 q 572 19 648 51 q 401 -14 497 -14 q 228 19 304 -14 q 107 114 152 51 q 63 272 63 178 q 107 418 63 356 q 227 514 151 480 q 399 547 303 547 q 572 514 496 547 q 691 418 648 480 q 735 272 735 356 m 530 287 q 514 360 530 330 q 468 407 498 391 q 399 423 439 423 q 331 407 360 423 q 285 360 301 391 q 269 287 269 330 q 285 215 269 245 q 331 168 301 184 q 401 151 361 151 q 469 168 440 151 q 514 215 498 184 q 530 287 530 245 m 714 724 q 674 590 714 648 q 563 500 634 532 q 401 467 492 467 q 237 500 309 467 q 125 590 165 532 q 84 724 84 648 q 125 876 84 814 q 237 970 165 938 q 399 1002 308 1002 q 563 970 492 1002 q 674 876 634 938 q 714 724 714 814 m 510 714 q 497 779 510 751 q 459 821 484 806 q 399 837 435 837 q 340 822 365 837 q 302 780 315 807 q 290 714 290 752 q 302 648 290 677 q 340 604 315 620 q 401 589 365 589 q 460 604 436 589 q 497 648 484 620 q 510 714 510 677 z "},"9":{"ha":799,"x_min":58,"x_max":729,"o":"m 219 161 q 356 178 298 161 q 451 231 414 196 q 506 318 488 266 q 524 441 524 371 l 524 636 q 507 748 524 703 q 459 814 490 792 q 391 836 429 836 q 321 810 350 836 q 277 742 292 783 q 262 653 262 700 q 277 564 262 604 q 322 499 292 523 q 398 475 352 475 q 456 487 430 475 q 500 518 482 498 q 528 562 518 538 q 539 611 538 587 l 606 568 q 586 479 606 524 q 530 398 566 435 q 447 340 494 362 q 347 319 399 319 q 190 362 254 319 q 92 480 125 405 q 58 651 58 555 q 99 827 58 747 q 216 954 140 907 q 392 1002 291 1002 q 529 974 467 1002 q 636 892 591 945 q 705 765 681 839 q 729 598 729 690 l 729 528 q 708 345 729 429 q 646 196 687 262 q 543 83 604 130 q 401 13 481 37 q 222 -11 321 -11 l 206 -11 l 206 161 l 219 161 z "}," ":{"ha":347,"x_min":0,"x_max":0,"o":""},"A":{"ha":939,"x_min":3,"x_max":937,"o":"m 231 0 l 3 0 l 370 987 l 514 987 l 494 800 l 231 0 m 446 800 l 423 987 l 568 987 l 937 0 l 709 0 l 446 800 m 703 197 l 179 197 l 179 369 l 703 369 l 703 197 z "},"B":{"ha":889,"x_min":85,"x_max":826,"o":"m 224 427 l 223 576 l 434 576 q 553 606 515 576 q 592 693 592 636 q 554 787 592 758 q 434 815 516 815 l 298 815 l 298 0 l 85 0 l 85 987 l 434 987 q 707 921 608 987 q 805 716 805 854 q 778 603 805 656 q 690 518 750 551 q 535 484 631 486 l 475 427 l 224 427 m 166 0 l 249 172 l 467 172 q 578 207 543 172 q 614 294 614 241 q 600 365 614 335 q 555 411 585 395 q 475 427 525 427 l 277 427 l 279 576 l 524 576 l 573 517 q 720 487 665 519 q 801 402 776 454 q 826 292 826 350 q 733 74 826 147 q 467 0 640 0 l 166 0 z "},"C":{"ha":910,"x_min":56,"x_max":868,"o":"m 867 331 q 812 153 861 231 q 676 31 763 75 q 467 -14 589 -14 q 247 44 339 -14 q 105 210 155 102 q 56 463 56 317 l 56 524 q 107 778 56 671 q 250 943 158 885 q 468 1002 342 1002 q 679 956 593 1002 q 811 831 764 910 q 868 650 859 751 l 655 650 q 608 782 649 736 q 468 827 567 827 q 359 795 402 827 q 294 696 315 763 q 272 525 272 629 l 272 463 q 291 294 272 361 q 353 194 311 227 q 467 161 396 161 q 568 179 528 161 q 629 236 608 198 q 654 331 650 274 l 867 331 z "},"D":{"ha":902,"x_min":85,"x_max":845,"o":"m 177 0 l 178 172 l 391 172 q 522 206 469 172 q 602 308 575 241 q 629 473 629 375 l 629 516 q 602 681 629 614 q 522 781 575 747 q 392 815 469 815 l 173 815 l 173 987 l 392 987 q 628 928 526 987 q 787 762 730 868 q 845 515 845 656 l 845 473 q 787 225 845 332 q 628 59 730 119 q 391 0 526 0 l 177 0 m 298 0 l 85 0 l 85 987 l 298 987 l 298 0 z "},"E":{"ha":781,"x_min":85,"x_max":751,"o":"m 751 0 l 230 0 l 230 172 l 751 172 l 751 0 m 298 0 l 85 0 l 85 987 l 298 987 l 298 0 m 684 425 l 230 425 l 230 591 l 684 591 l 684 425 m 751 815 l 230 815 l 230 987 l 751 987 l 751 815 z "},"F":{"ha":760,"x_min":85,"x_max":732,"o":"m 298 0 l 85 0 l 85 987 l 298 987 l 298 0 m 686 399 l 241 399 l 241 571 l 686 571 l 686 399 m 732 815 l 241 815 l 241 987 l 732 987 l 732 815 z "},"G":{"ha":947,"x_min":62,"x_max":873,"o":"m 873 125 q 801 65 850 97 q 676 9 753 33 q 492 -14 600 -14 q 267 42 363 -14 q 116 205 170 98 q 62 465 62 313 l 62 522 q 114 782 62 675 q 259 945 165 889 q 477 1002 353 1002 q 692 959 608 1002 q 819 842 775 917 q 873 671 863 768 l 666 671 q 638 756 659 720 q 581 811 618 791 q 484 830 543 830 q 372 795 418 830 q 301 693 326 761 q 277 523 277 625 l 277 465 q 303 296 277 364 q 379 193 329 227 q 505 158 430 158 q 581 165 551 158 q 631 183 612 173 q 660 203 650 194 l 660 368 l 481 368 l 481 523 l 873 523 l 873 125 z "},"H":{"ha":981,"x_min":85,"x_max":895,"o":"m 743 419 l 235 419 l 235 591 l 743 591 l 743 419 m 298 0 l 85 0 l 85 987 l 298 987 l 298 0 m 895 0 l 682 0 l 682 987 l 895 987 l 895 0 z "},"I":{"ha":409,"x_min":98,"x_max":311,"o":"m 311 0 l 98 0 l 98 987 l 311 987 l 311 0 z "},"J":{"ha":777,"x_min":26,"x_max":694,"o":"m 481 987 l 694 987 l 694 306 q 650 135 694 207 q 531 25 606 64 q 361 -14 456 -14 q 188 19 264 -14 q 70 120 113 52 q 26 294 26 189 l 241 294 q 273 187 241 216 q 361 158 305 158 q 425 175 397 158 q 467 225 452 193 q 481 306 481 258 l 481 987 z "},"K":{"ha":883,"x_min":85,"x_max":897,"o":"m 298 0 l 85 0 l 85 987 l 298 987 l 298 0 m 500 494 l 272 248 l 233 455 l 385 669 l 627 987 l 888 987 l 500 494 m 363 450 l 522 583 l 897 0 l 644 0 l 363 450 z "},"L":{"ha":753,"x_min":85,"x_max":726,"o":"m 726 0 l 230 0 l 230 172 l 726 172 l 726 0 m 298 0 l 85 0 l 85 987 l 298 987 l 298 0 z "},"M":{"ha":1217,"x_min":85,"x_max":1131,"o":"m 363 987 l 608 283 l 852 987 l 1032 987 l 680 0 l 535 0 l 184 987 l 363 987 m 265 987 l 298 256 l 298 0 l 85 0 l 85 987 l 265 987 m 1131 987 l 1131 0 l 918 0 l 918 256 l 950 987 l 1131 987 z "},"N":{"ha":980,"x_min":85,"x_max":894,"o":"m 894 0 l 681 0 l 298 635 l 298 0 l 85 0 l 85 987 l 298 987 l 682 351 l 682 987 l 894 987 l 894 0 z "},"O":{"ha":960,"x_min":56,"x_max":903,"o":"m 903 473 q 849 213 903 321 q 701 45 795 104 q 481 -14 606 -14 q 260 45 356 -14 q 110 213 164 104 q 56 473 56 321 l 56 513 q 110 774 56 665 q 259 942 163 883 q 479 1001 355 1001 q 700 942 604 1001 q 849 774 795 883 q 903 513 903 665 l 903 473 m 688 515 q 663 686 688 616 q 592 790 639 755 q 479 825 545 825 q 366 790 412 825 q 296 686 320 755 q 272 515 272 616 l 272 473 q 296 303 272 372 q 367 197 321 233 q 481 161 414 161 q 593 197 547 161 q 664 303 640 233 q 688 473 688 372 l 688 515 z "},"P":{"ha":899,"x_min":85,"x_max":848,"o":"m 225 344 l 225 515 l 473 515 q 565 534 530 515 q 616 584 600 552 q 632 657 632 616 q 616 735 632 699 q 565 793 600 771 q 473 815 530 815 l 298 815 l 298 0 l 85 0 l 85 987 l 473 987 q 675 945 591 987 q 804 828 759 902 q 848 659 848 753 q 804 492 848 562 q 675 382 759 421 q 473 344 591 344 l 225 344 z "},"Q":{"ha":960,"x_min":55,"x_max":902,"o":"m 897 -58 l 762 -178 l 496 37 l 625 156 l 897 -58 m 902 473 q 849 213 902 321 q 700 45 795 104 q 480 -14 605 -14 q 259 45 355 -14 q 109 213 163 104 q 55 473 55 321 l 55 513 q 109 774 55 665 q 258 942 163 883 q 479 1001 354 1001 q 699 942 604 1001 q 848 774 795 883 q 902 513 902 665 l 902 473 m 687 515 q 662 686 687 616 q 591 790 637 755 q 479 825 545 825 q 366 790 412 825 q 295 686 319 755 q 271 515 271 616 l 271 473 q 295 303 271 372 q 367 197 319 233 q 480 161 414 161 q 592 197 546 161 q 663 303 638 233 q 687 473 687 372 l 687 515 z "},"R":{"ha":889,"x_min":85,"x_max":861,"o":"m 457 987 q 654 953 572 987 q 781 853 736 919 q 825 689 825 787 q 798 551 825 608 q 723 456 771 494 q 610 396 675 419 l 542 357 l 225 357 l 224 530 l 456 530 q 543 547 508 530 q 594 596 577 564 q 611 671 611 628 q 573 777 611 738 q 457 815 536 815 l 298 815 l 298 0 l 85 0 l 85 987 l 457 987 m 410 439 l 635 440 l 861 10 l 861 0 l 632 0 l 410 439 z "},"S":{"ha":857,"x_min":46,"x_max":808,"o":"m 595 260 q 581 318 595 294 q 527 365 567 342 q 408 412 486 387 q 281 461 341 433 q 175 525 221 488 q 102 610 129 562 q 76 724 76 659 q 123 870 76 808 q 254 966 171 932 q 444 1001 337 1001 q 636 962 554 1001 q 763 855 718 924 q 808 696 808 786 l 596 696 q 579 767 596 736 q 528 815 562 798 q 441 832 494 832 q 356 817 390 832 q 306 778 322 802 q 289 723 289 753 q 311 667 289 691 q 376 624 334 644 q 480 585 419 604 q 661 508 588 552 q 771 404 734 464 q 808 262 808 344 q 764 113 808 175 q 639 19 720 52 q 449 -14 558 -14 q 303 6 374 -14 q 173 65 231 25 q 81 168 115 106 q 46 314 46 229 l 260 314 q 273 240 260 270 q 311 191 286 210 q 371 163 336 172 q 449 155 406 155 q 532 169 500 155 q 580 207 564 182 q 595 260 595 231 z "},"T":{"ha":863,"x_min":27,"x_max":836,"o":"m 536 0 l 323 0 l 323 987 l 536 987 l 536 0 m 836 815 l 27 815 l 27 987 l 836 987 l 836 815 z "},"U":{"ha":916,"x_min":77,"x_max":839,"o":"m 839 987 l 839 338 q 790 145 839 224 q 655 26 741 66 q 458 -14 570 -14 q 260 26 347 -14 q 125 145 174 66 q 77 338 77 224 l 77 987 l 290 987 l 290 338 q 310 235 290 275 q 368 177 330 195 q 458 158 406 158 q 549 177 512 158 q 606 235 587 195 q 625 338 625 275 l 625 987 l 839 987 z "},"V":{"ha":911,"x_min":3,"x_max":909,"o":"m 672 987 l 909 987 l 568 0 l 411 0 l 444 219 l 672 987 m 466 219 l 500 0 l 344 0 l 3 987 l 240 987 l 466 219 z "},"W":{"ha":1213,"x_min":22,"x_max":1192,"o":"m 517 987 l 631 987 l 662 871 l 454 0 l 331 0 l 323 131 l 517 987 m 395 129 l 375 0 l 239 0 l 22 987 l 234 987 l 395 129 m 981 987 l 1192 987 l 976 0 l 839 0 l 822 132 l 981 987 m 894 127 l 884 0 l 760 0 l 551 872 l 585 987 l 697 987 l 894 127 z "},"X":{"ha":884,"x_min":13,"x_max":872,"o":"m 443 653 l 621 987 l 865 987 l 581 498 l 872 0 l 625 0 l 443 340 l 260 0 l 13 0 l 304 498 l 20 987 l 264 987 l 443 653 z "},"Y":{"ha":862,"x_min":0,"x_max":861,"o":"m 431 549 l 629 987 l 861 987 l 539 357 l 539 0 l 323 0 l 323 357 l 0 987 l 233 987 l 431 549 z "},"Z":{"ha":844,"x_min":47,"x_max":805,"o":"m 805 0 l 104 0 l 104 172 l 805 172 l 805 0 m 199 0 l 49 0 l 49 123 l 650 987 l 795 987 l 795 868 l 199 0 m 722 815 l 47 815 l 47 987 l 722 987 l 722 815 z "},"a":{"ha":744,"x_min":43,"x_max":701,"o":"m 466 489 q 441 568 466 538 q 363 597 417 597 q 311 587 333 597 q 277 558 288 576 q 265 512 265 539 l 60 512 q 99 630 60 577 q 208 715 138 684 q 374 747 279 747 q 527 719 460 747 q 633 632 594 690 q 671 488 671 574 l 671 181 q 679 78 671 116 q 701 12 687 40 l 701 0 l 495 0 q 473 78 480 31 q 466 173 466 125 l 466 489 m 494 331 l 389 331 q 281 299 315 331 q 248 221 248 267 q 273 164 248 186 q 338 142 297 142 q 412 158 381 142 q 459 198 443 175 q 475 241 476 222 l 528 153 q 499 97 517 126 q 454 43 481 68 q 386 2 426 18 q 293 -14 347 -14 q 167 15 224 -14 q 77 93 110 43 q 43 207 43 142 q 129 386 43 322 q 383 449 214 449 l 492 449 l 494 331 z "},"b":{"ha":782,"x_min":73,"x_max":739,"o":"m 278 1042 l 278 174 l 257 0 l 73 0 l 73 1042 l 278 1042 m 739 361 q 708 166 739 251 q 614 34 677 81 q 454 -14 551 -14 q 306 36 363 -14 q 217 169 249 85 q 172 359 185 254 l 172 376 q 217 565 185 481 q 306 698 248 649 q 453 747 363 747 q 613 699 550 747 q 708 567 677 651 q 739 375 739 483 l 739 361 m 534 375 q 524 478 534 431 q 484 553 513 525 q 401 581 455 581 q 336 569 363 581 q 291 533 309 557 q 266 477 274 510 q 256 403 257 444 l 256 332 q 273 237 258 277 q 319 174 288 197 q 402 152 351 152 q 485 179 456 152 q 524 253 513 205 q 534 361 534 300 l 534 375 z "},"c":{"ha":725,"x_min":43,"x_max":690,"o":"m 380 151 q 441 164 414 151 q 482 201 467 177 q 497 257 496 224 l 690 257 q 648 117 689 178 q 538 21 608 56 q 383 -14 469 -14 q 194 36 269 -14 q 80 170 118 85 q 43 357 43 254 l 43 376 q 80 564 43 480 q 194 698 118 648 q 382 747 269 747 q 542 712 473 747 q 650 613 611 677 q 690 458 689 548 l 497 458 q 483 520 496 492 q 444 566 470 549 q 378 583 417 583 q 296 553 324 583 q 258 477 268 524 q 248 376 248 430 l 248 357 q 257 255 248 302 q 296 180 267 208 q 380 151 325 151 z "},"d":{"ha":783,"x_min":43,"x_max":709,"o":"m 503 1042 l 709 1042 l 709 0 l 524 0 l 503 163 l 503 1042 m 43 372 q 76 569 43 484 q 174 700 110 653 q 330 747 238 747 q 474 698 416 747 q 566 564 532 649 q 612 371 600 479 l 612 354 q 566 168 600 252 q 474 36 532 85 q 329 -14 416 -14 q 174 35 238 -14 q 76 168 110 83 q 43 358 43 252 l 43 372 m 248 358 q 260 254 248 301 q 302 180 273 208 q 381 153 332 153 q 461 175 430 153 q 509 236 492 197 q 528 327 525 275 l 528 397 q 516 476 526 441 q 489 533 507 510 q 445 569 472 557 q 382 581 418 581 q 304 554 334 581 q 261 479 274 526 q 248 372 248 432 l 248 358 z "},"e":{"ha":753,"x_min":47,"x_max":719,"o":"m 416 -14 q 217 35 300 -14 q 91 163 135 83 q 47 342 47 244 l 47 368 q 89 564 47 478 q 208 699 131 650 q 393 747 286 747 q 572 703 499 747 q 682 577 644 658 q 719 387 719 496 l 719 300 l 134 300 l 134 437 l 517 437 l 517 454 q 504 521 517 492 q 463 566 490 550 q 391 583 435 583 q 311 554 341 583 q 266 477 280 526 q 252 368 252 429 l 252 342 q 273 243 252 286 q 334 176 294 200 q 429 152 373 152 q 526 171 481 152 q 604 232 572 191 l 703 119 q 596 28 668 69 q 416 -14 524 -14 z "},"f":{"ha":500,"x_min":18,"x_max":500,"o":"m 125 0 l 125 796 q 199 989 125 922 q 398 1056 273 1056 q 451 1052 426 1056 q 500 1042 477 1048 l 499 884 q 472 888 486 887 q 439 890 457 890 q 359 866 388 890 q 331 796 331 842 l 331 0 l 125 0 m 475 585 l 18 585 l 18 734 l 475 734 l 475 585 z "},"g":{"ha":795,"x_min":44,"x_max":722,"o":"m 722 734 l 722 26 q 677 -145 722 -75 q 551 -252 632 -216 q 364 -289 471 -289 q 267 -277 319 -289 q 169 -239 216 -264 q 90 -176 121 -214 l 180 -50 q 257 -108 212 -87 q 355 -130 302 -130 q 474 -89 432 -130 q 517 26 517 -49 l 517 562 l 536 734 l 722 734 m 44 372 q 80 569 44 484 q 184 700 117 653 q 343 747 251 747 q 467 719 417 747 q 548 640 517 691 q 597 520 579 589 q 625 371 614 452 l 625 354 q 579 168 611 252 q 490 36 547 85 q 342 -14 432 -14 q 183 35 250 -14 q 80 168 117 83 q 44 358 44 252 l 44 372 m 250 358 q 265 254 250 301 q 313 180 281 208 q 394 153 345 153 q 478 175 446 153 q 527 236 511 197 q 546 327 544 275 l 546 397 q 535 476 545 441 q 507 533 526 510 q 461 569 489 557 q 395 581 434 581 q 314 554 347 581 q 266 479 281 526 q 250 372 250 432 l 250 358 z "},"h":{"ha":779,"x_min":68,"x_max":709,"o":"m 273 0 l 68 0 l 68 1042 l 273 1042 l 273 0 m 189 389 q 223 574 189 493 q 320 701 258 654 q 466 747 382 747 q 593 719 538 747 q 679 628 648 691 q 709 460 709 566 l 709 0 l 504 0 l 504 462 q 491 534 504 508 q 452 571 477 560 q 390 581 427 581 q 321 567 349 581 q 276 528 294 553 q 252 467 259 502 q 244 391 244 432 l 189 389 z "},"i":{"ha":372,"x_min":71,"x_max":300,"o":"m 289 0 l 83 0 l 83 734 l 289 734 l 289 0 m 71 923 q 102 999 71 969 q 186 1028 134 1028 q 269 999 238 1028 q 300 923 300 969 q 269 848 300 878 q 186 818 238 818 q 102 848 134 818 q 71 923 71 878 z "},"j":{"ha":365,"x_min":-67,"x_max":298,"o":"m 290 734 l 290 -36 q 223 -229 290 -162 q 34 -296 155 -296 q -17 -294 8 -296 q -66 -285 -41 -291 l -67 -123 q -36 -127 -51 -125 q -4 -129 -20 -129 q 62 -106 39 -129 q 85 -36 85 -84 l 85 734 l 290 734 m 69 923 q 100 999 69 969 q 183 1028 131 1028 q 267 999 235 1028 q 298 923 298 969 q 267 848 298 878 q 183 818 235 818 q 100 848 131 818 q 69 923 69 878 z "},"k":{"ha":747,"x_min":73,"x_max":762,"o":"m 278 0 l 73 0 l 73 1042 l 278 1042 l 278 0 m 424 366 l 250 192 l 175 339 l 313 517 l 494 734 l 741 734 l 424 366 m 317 335 l 460 456 l 762 0 l 527 0 l 317 335 z "},"l":{"ha":372,"x_min":83,"x_max":289,"o":"m 289 0 l 83 0 l 83 1042 l 289 1042 l 289 0 z "},"m":{"ha":1200,"x_min":73,"x_max":1128,"o":"m 278 0 l 73 0 l 73 734 l 266 734 l 278 581 l 278 0 m 193 389 q 226 574 193 493 q 322 701 258 654 q 481 747 387 747 q 641 687 579 747 q 703 490 703 627 l 703 0 l 498 0 l 498 465 q 485 537 498 511 q 449 572 473 562 q 392 581 425 581 q 329 567 356 581 q 284 528 302 553 q 258 467 267 502 q 250 391 250 432 l 193 389 m 611 397 q 642 576 610 496 q 736 701 673 655 q 893 747 800 747 q 1017 720 964 747 q 1099 631 1069 693 q 1128 466 1128 570 l 1128 0 l 922 0 l 922 467 q 909 538 922 514 q 873 572 897 563 q 817 581 850 581 q 759 568 783 581 q 717 531 734 555 q 692 475 701 507 q 684 405 684 443 l 611 397 z "},"n":{"ha":780,"x_min":68,"x_max":709,"o":"m 273 0 l 68 0 l 68 734 l 261 734 l 273 577 l 273 0 m 189 389 q 225 580 189 500 q 326 704 261 661 q 477 747 391 747 q 598 720 547 747 q 680 632 650 693 q 709 465 709 570 l 709 0 l 504 0 l 504 467 q 491 537 504 512 q 452 571 477 562 q 391 581 427 581 q 326 567 353 581 q 280 528 298 553 q 254 467 262 502 q 245 391 245 432 l 189 389 z "},"o":{"ha":785,"x_min":43,"x_max":741,"o":"m 43 374 q 83 565 43 481 q 202 699 124 650 q 391 747 280 747 q 582 699 504 747 q 701 565 661 650 q 741 374 741 481 l 741 359 q 701 168 741 253 q 583 35 661 83 q 393 -14 505 -14 q 202 35 281 -14 q 83 168 124 83 q 43 359 43 253 l 43 374 m 248 359 q 262 254 248 302 q 308 179 276 207 q 393 151 339 151 q 477 179 446 151 q 523 254 509 207 q 536 359 536 302 l 536 374 q 523 478 536 430 q 477 554 509 526 q 391 583 446 583 q 307 554 338 583 q 262 478 275 526 q 248 374 248 430 l 248 359 z "},"p":{"ha":782,"x_min":73,"x_max":739,"o":"m 278 -282 l 73 -282 l 73 734 l 263 734 l 278 593 l 278 -282 m 739 361 q 706 170 739 254 q 610 36 673 85 q 454 -14 547 -14 q 306 36 363 -14 q 216 168 248 85 q 170 353 184 252 l 170 374 q 215 566 183 481 q 306 699 248 650 q 453 747 363 747 q 610 701 546 747 q 706 571 673 654 q 739 375 739 487 l 739 361 m 534 375 q 521 481 534 435 q 478 554 508 528 q 399 581 448 581 q 334 569 361 581 q 290 534 307 557 q 264 478 273 511 q 254 400 256 444 l 254 326 q 272 236 257 275 q 317 174 286 197 q 400 151 349 151 q 479 180 450 151 q 522 256 509 208 q 534 361 534 304 l 534 375 z "},"q":{"ha":785,"x_min":43,"x_max":709,"o":"m 503 583 l 530 734 l 709 734 l 709 -282 l 503 -282 l 503 583 m 43 374 q 76 570 43 486 q 174 701 109 654 q 330 747 238 747 q 478 699 420 747 q 568 565 536 650 q 613 372 600 480 l 613 355 q 567 169 600 253 q 477 36 535 85 q 329 -14 420 -14 q 173 35 237 -14 q 76 169 109 84 q 43 359 43 253 l 43 374 m 248 359 q 260 255 248 302 q 303 179 273 208 q 382 151 332 151 q 465 174 434 151 q 512 237 496 197 q 529 329 527 277 l 529 399 q 519 477 528 443 q 493 534 511 511 q 448 570 475 558 q 383 583 421 583 q 304 555 334 583 q 261 480 274 528 q 248 374 248 433 l 248 359 z "},"r":{"ha":511,"x_min":73,"x_max":495,"o":"m 278 0 l 73 0 l 73 734 l 266 734 l 278 565 l 278 0 m 492 541 q 457 545 477 543 q 420 547 437 547 q 332 530 367 547 q 281 481 298 513 q 262 400 264 448 l 222 418 q 247 588 222 513 q 319 705 271 663 q 434 747 366 747 q 467 745 450 747 q 495 739 484 743 l 492 541 z "},"s":{"ha":715,"x_min":35,"x_max":666,"o":"m 467 205 q 455 240 467 225 q 411 268 443 255 q 319 294 379 281 q 185 338 245 310 q 92 410 126 366 q 58 517 58 454 q 94 631 58 579 q 195 715 129 684 q 353 747 261 747 q 519 717 450 747 q 627 633 589 686 q 664 510 664 579 l 459 510 q 434 577 459 551 q 353 604 408 604 q 300 593 323 604 q 266 567 278 583 q 254 528 254 550 q 267 492 254 507 q 309 465 280 476 q 387 444 338 453 q 528 403 465 429 q 629 332 591 377 q 666 212 666 287 q 628 96 666 147 q 519 16 589 45 q 354 -14 449 -14 q 179 24 250 -14 q 71 118 108 61 q 35 235 35 176 l 229 235 q 249 176 231 199 q 295 142 267 153 q 359 131 324 131 q 418 140 394 131 q 454 166 442 149 q 467 205 467 182 z "},"t":{"ha":471,"x_min":7,"x_max":448,"o":"m 440 585 l 7 585 l 7 734 l 440 734 l 440 585 m 316 915 l 316 229 q 324 183 316 199 q 349 161 332 167 q 391 155 366 155 q 423 156 409 155 q 448 159 437 157 l 447 5 q 392 -9 422 -4 q 326 -14 363 -14 q 212 8 260 -14 q 137 79 163 31 q 111 206 111 127 l 111 915 l 316 915 z "},"u":{"ha":779,"x_min":68,"x_max":709,"o":"m 504 734 l 709 734 l 709 0 l 517 0 l 504 177 l 504 734 m 586 330 q 556 154 586 231 q 465 31 526 76 q 312 -14 404 -14 q 136 50 203 -14 q 68 259 68 113 l 68 734 l 273 734 l 273 258 q 286 197 273 220 q 321 163 298 174 q 373 153 344 153 q 466 176 432 153 q 513 239 499 199 q 527 329 527 279 l 586 330 z "},"v":{"ha":706,"x_min":7,"x_max":696,"o":"m 482 734 l 696 734 l 451 0 l 321 0 l 326 151 l 482 734 m 379 151 l 382 0 l 253 0 l 7 734 l 222 734 l 379 151 z "},"w":{"ha":1018,"x_min":18,"x_max":998,"o":"m 434 734 l 563 734 l 524 504 l 373 0 l 265 0 l 283 199 l 434 734 m 321 201 l 328 0 l 202 0 l 18 734 l 215 734 l 321 201 m 800 734 l 998 734 l 814 0 l 688 0 l 696 210 l 800 734 m 732 202 l 751 0 l 642 0 l 492 503 l 454 734 l 581 734 l 732 202 z "},"x":{"ha":709,"x_min":13,"x_max":701,"o":"m 357 522 l 475 734 l 692 734 l 488 375 l 701 0 l 483 0 l 357 225 l 233 0 l 13 0 l 227 375 l 22 734 l 241 734 l 357 522 z "},"y":{"ha":702,"x_min":1,"x_max":701,"o":"m 482 734 l 701 734 l 408 -110 q 382 -169 399 -137 q 339 -231 366 -201 q 272 -278 313 -260 q 172 -296 231 -296 q 139 -295 153 -296 q 112 -291 125 -294 q 83 -283 99 -288 l 83 -129 q 98 -129 90 -129 q 113 -130 106 -130 q 197 -112 170 -130 q 237 -56 223 -94 l 290 85 l 482 734 m 374 215 l 401 -11 l 263 -20 l 1 734 l 221 734 l 374 215 z "},"z":{"ha":709,"x_min":50,"x_max":662,"o":"m 662 0 l 104 0 l 104 165 l 662 165 l 662 0 m 186 0 l 50 0 l 50 123 l 513 734 l 652 734 l 652 614 l 186 0 m 581 569 l 60 569 l 60 734 l 581 734 l 581 569 z "},"¹":{"ha":519,"x_min":94,"x_max":361,"o":"m 361 452 l 219 452 l 219 819 l 94 793 l 94 903 l 349 985 l 361 985 l 361 452 z "},"²":{"ha":519,"x_min":37,"x_max":471,"o":"m 471 452 l 50 452 l 50 549 l 243 722 q 297 782 280 753 q 313 826 313 811 q 298 866 313 851 q 252 880 282 880 q 198 859 216 880 q 181 808 181 837 l 37 808 q 62 902 37 859 q 134 970 87 945 q 245 996 181 996 q 401 951 346 996 q 456 826 456 907 q 440 754 456 786 q 392 691 425 722 q 308 621 359 660 l 237 567 l 471 567 l 471 452 z "},"³":{"ha":519,"x_min":32,"x_max":473,"o":"m 246 772 q 301 788 283 772 q 319 831 319 804 q 304 864 319 848 q 250 880 289 880 q 204 870 224 880 q 184 842 184 861 l 41 842 q 70 927 41 893 q 145 978 98 961 q 246 996 192 996 q 402 956 342 996 q 463 842 463 917 q 437 770 463 800 q 368 726 412 741 q 270 711 324 711 l 186 711 l 186 772 l 246 772 m 186 738 l 270 738 q 375 726 329 738 q 447 684 420 713 q 473 603 473 655 q 408 486 473 528 q 245 445 342 445 q 146 461 196 445 q 64 515 97 477 q 32 614 32 552 l 176 614 q 197 577 176 593 q 255 560 218 560 q 312 577 294 560 q 329 617 329 595 q 307 664 329 650 q 246 678 286 678 l 186 678 l 186 738 z "},"ª":{"ha":616,"x_min":92,"x_max":530,"o":"m 393 814 q 373 878 393 856 q 315 899 354 899 q 247 882 272 899 q 222 833 222 865 l 104 843 q 161 956 104 911 q 315 1001 219 1001 q 458 954 404 1001 q 513 814 513 907 l 513 601 q 517 538 513 568 q 530 478 521 508 l 409 478 q 396 529 400 502 q 393 584 393 556 l 393 814 m 422 700 l 325 700 q 240 678 267 700 q 213 626 213 656 q 232 583 213 599 q 291 568 251 568 q 347 580 318 568 q 394 611 375 593 q 413 645 413 629 l 425 565 q 394 521 415 543 q 340 484 373 498 q 261 469 307 469 q 136 511 180 469 q 92 623 92 553 q 150 739 92 698 q 324 780 207 780 l 422 780 l 422 700 z "},"º":{"ha":635,"x_min":80,"x_max":551,"o":"m 80 760 q 144 933 80 865 q 315 1001 208 1001 q 488 933 425 1001 q 551 760 551 865 l 551 708 q 488 535 551 603 q 317 468 425 468 q 144 535 208 468 q 80 708 80 603 l 80 760 m 201 708 q 229 608 201 648 q 317 568 258 568 q 402 608 374 568 q 431 708 431 648 l 431 760 q 402 859 431 819 q 315 899 374 899 q 229 859 258 899 q 201 760 201 819 l 201 708 z "},"½":{"ha":1114,"x_min":94,"x_max":1067,"o":"m 361 73 l 262 126 l 744 898 l 843 845 l 361 73 m 361 370 l 219 370 l 219 737 l 94 711 l 94 821 l 349 903 l 361 903 l 361 370 m 1067 0 l 645 0 l 645 97 l 839 270 q 892 330 876 301 q 909 374 909 359 q 893 413 909 399 q 847 428 878 428 q 794 406 811 428 q 777 355 777 385 l 633 355 q 658 450 633 407 q 730 518 683 492 q 840 543 777 543 q 997 499 941 543 q 1052 374 1052 454 q 1036 302 1052 334 q 987 239 1020 270 q 903 168 954 208 l 833 115 l 1067 115 l 1067 0 z "},"¼":{"ha":1043,"x_min":94,"x_max":1003,"o":"m 368 73 l 269 126 l 751 898 l 850 845 l 368 73 m 361 370 l 219 370 l 219 737 l 94 711 l 94 821 l 349 903 l 361 903 l 361 370 m 1003 107 l 570 107 l 561 202 l 802 535 l 914 535 l 792 346 l 697 224 l 1003 224 l 1003 107 m 945 0 l 802 0 l 802 535 l 945 535 l 945 0 z "},"¾":{"ha":1104,"x_min":32,"x_max":1064,"o":"m 246 686 q 301 702 283 686 q 319 744 319 718 q 304 778 319 762 q 250 793 289 793 q 204 784 224 793 q 184 755 184 774 l 41 755 q 70 840 41 806 q 145 891 98 874 q 246 909 192 909 q 402 869 342 909 q 463 755 463 830 q 437 684 463 713 q 368 639 412 654 q 270 624 324 624 l 186 624 l 186 686 l 246 686 m 186 651 l 270 651 q 375 639 329 651 q 447 597 420 627 q 473 516 473 568 q 408 399 473 441 q 245 358 342 358 q 146 374 196 358 q 64 428 97 391 q 32 527 32 465 l 176 527 q 197 490 176 507 q 255 473 218 473 q 312 491 294 473 q 329 530 329 508 q 307 577 329 564 q 246 591 286 591 l 186 591 l 186 651 m 429 73 l 330 126 l 812 898 l 911 845 l 429 73 m 1064 107 l 631 107 l 622 202 l 863 535 l 975 535 l 853 346 l 758 224 l 1064 224 l 1064 107 m 1006 0 l 863 0 l 863 535 l 1006 535 l 1006 0 z "},"Æ":{"ha":1308,"x_min":3,"x_max":1265,"o":"m 243 0 l 3 0 l 528 987 l 658 987 l 676 879 l 243 0 m 746 224 l 235 224 l 235 398 l 746 398 l 746 224 m 1265 0 l 768 0 l 768 167 l 1265 167 l 1265 0 m 859 0 l 654 0 l 613 987 l 818 987 l 859 0 m 1168 422 l 741 422 l 741 590 l 1168 590 l 1168 422 m 1223 821 l 727 821 l 727 987 l 1223 987 l 1223 821 z "},"æ":{"ha":1173,"x_min":44,"x_max":1139,"o":"m 490 478 q 464 554 490 526 q 388 583 437 583 q 303 559 334 583 q 273 504 273 536 l 68 517 q 108 636 68 584 q 220 718 148 688 q 390 747 292 747 q 607 680 526 747 q 689 477 689 612 l 689 148 l 490 124 l 490 478 m 522 309 l 385 309 q 310 296 340 309 q 264 261 280 283 q 249 215 249 239 q 275 158 249 180 q 358 136 302 136 q 415 145 386 136 q 468 171 444 155 q 508 204 493 186 q 523 238 523 222 l 618 130 q 562 64 600 98 q 463 9 523 31 q 319 -14 402 -14 q 115 49 186 -14 q 44 218 44 112 q 131 384 44 325 q 384 442 217 442 l 520 442 l 522 309 m 844 -14 q 652 31 730 -14 q 532 154 573 75 q 492 334 492 233 l 492 382 q 530 572 492 490 q 645 702 569 655 q 829 747 720 748 q 1057 657 975 747 q 1139 414 1139 568 l 1139 301 l 575 301 l 575 437 l 937 437 l 937 456 q 926 523 937 494 q 890 567 914 551 q 829 583 867 583 q 747 556 778 583 q 703 485 716 530 q 689 382 689 439 l 689 334 q 707 241 689 282 q 764 176 725 199 q 867 152 804 152 q 981 167 937 152 q 1065 201 1025 182 l 1118 68 q 1054 31 1095 50 q 960 -1 1013 12 q 844 -14 907 -14 z "},"Œ":{"ha":1348,"x_min":65,"x_max":1278,"o":"m 478 1001 q 579 997 530 1001 q 675 987 629 993 l 675 817 q 581 830 631 825 q 478 836 531 836 q 368 809 414 836 q 295 731 321 783 q 270 598 270 678 l 270 391 q 296 258 270 311 q 369 178 321 204 q 479 151 416 151 q 582 157 532 151 q 675 170 631 162 l 675 0 q 580 -9 629 -5 q 479 -14 531 -14 q 263 37 357 -14 q 118 180 170 88 q 65 391 65 271 l 65 597 q 117 808 65 717 q 262 950 170 899 q 478 1001 355 1001 m 1278 0 l 757 0 l 757 172 l 1278 172 l 1278 0 m 825 0 l 612 0 l 612 987 l 825 987 l 825 0 m 1211 425 l 757 425 l 757 591 l 1211 591 l 1211 425 m 1278 815 l 757 815 l 757 987 l 1278 987 l 1278 815 z "},"œ":{"ha":1252,"x_min":56,"x_max":1200,"o":"m 903 -14 q 716 34 795 -14 q 595 163 637 81 q 553 345 553 244 l 553 371 q 593 564 553 478 q 707 699 633 649 q 885 747 781 748 q 1057 706 987 747 q 1163 591 1127 665 q 1200 415 1200 516 l 1200 301 l 640 301 l 640 439 l 998 439 l 998 456 q 987 523 998 494 q 950 567 975 551 q 885 583 926 583 q 811 553 840 583 q 771 476 783 524 q 758 371 758 428 l 758 345 q 776 250 758 294 q 831 179 794 205 q 926 152 869 152 q 1043 166 999 152 q 1129 201 1086 180 l 1183 70 q 1071 12 1143 38 q 903 -14 999 -14 m 56 374 q 96 565 56 481 q 214 699 136 650 q 403 747 292 747 q 593 699 515 747 q 711 565 671 650 q 751 374 751 481 l 751 359 q 711 168 751 253 q 593 35 671 83 q 404 -14 516 -14 q 214 35 292 -14 q 96 168 136 83 q 56 359 56 253 l 56 374 m 260 359 q 274 255 260 302 q 319 180 288 208 q 404 152 350 152 q 488 180 457 152 q 533 255 519 208 q 547 359 547 302 l 547 374 q 533 478 547 430 q 488 554 519 526 q 403 583 457 583 q 318 554 350 583 q 274 478 287 526 q 260 374 260 430 l 260 359 z "},"ð":{"ha":798,"x_min":54,"x_max":753,"o":"m 221 1072 q 497 955 377 1040 q 685 740 617 870 q 753 442 753 610 l 753 395 q 707 182 753 274 q 580 38 661 90 q 397 -14 500 -14 q 217 31 294 -14 q 97 150 140 75 q 54 317 54 225 q 90 494 54 418 q 195 612 126 570 q 361 654 264 654 q 499 621 437 654 q 598 529 560 587 q 641 397 635 471 l 568 399 q 558 433 568 415 q 529 466 549 451 q 478 490 509 481 q 407 500 448 500 q 325 478 358 500 q 275 415 292 456 q 258 317 258 374 q 275 234 258 272 q 324 174 292 196 q 399 151 355 151 q 481 180 448 151 q 531 260 514 210 q 547 373 547 310 l 547 444 q 515 628 547 549 q 428 764 483 707 q 302 858 372 821 q 156 913 231 895 l 221 1072 m 285 699 l 231 778 l 618 1023 l 671 944 l 285 699 z "},"Þ":{"ha":848,"x_min":87,"x_max":807,"o":"m 293 987 l 293 0 l 87 0 l 87 987 l 293 987 m 439 808 q 640 769 558 808 q 765 660 722 730 q 807 500 807 591 q 765 341 807 411 q 640 232 722 272 q 439 193 558 193 l 265 193 l 265 357 l 439 357 q 533 377 497 357 q 585 430 569 397 q 601 499 601 463 q 585 570 601 536 q 533 623 569 603 q 439 644 497 644 l 293 644 l 157 808 l 439 808 z "},"þ":{"ha":787,"x_min":74,"x_max":741,"o":"m 279 -282 l 74 -282 l 74 1042 l 279 1042 l 279 -282 m 741 361 q 708 170 741 254 q 611 36 675 85 q 455 -14 548 -14 q 306 36 364 -14 q 216 168 248 85 q 171 353 184 252 l 171 374 q 216 566 184 481 q 306 699 248 650 q 454 747 364 747 q 610 701 547 747 q 707 571 674 654 q 741 375 741 487 l 741 361 m 535 375 q 522 481 535 435 q 479 554 509 528 q 400 581 450 581 q 335 569 362 581 q 291 534 308 557 q 265 478 273 511 q 256 400 256 444 l 256 326 q 273 236 258 275 q 318 174 287 197 q 401 151 350 151 q 480 180 451 151 q 522 256 509 208 q 535 361 535 304 l 535 375 z "},"ẞ":{"ha":947,"x_min":59,"x_max":889,"o":"m 264 0 l 59 0 l 59 649 l 264 649 l 264 0 m 59 648 q 98 844 59 765 q 214 962 136 922 q 407 1002 291 1002 q 635 956 532 1002 q 839 831 738 910 l 545 488 l 407 488 l 407 574 l 585 776 q 507 819 550 802 q 407 837 465 837 q 330 817 362 837 q 281 756 298 798 q 264 648 264 715 l 59 648 m 380 182 q 440 162 402 174 q 526 151 479 151 q 643 187 602 151 q 684 284 684 223 q 663 380 684 345 q 600 430 642 415 q 498 445 558 445 l 407 445 l 407 570 l 528 582 q 794 506 699 582 q 889 285 889 431 q 843 119 889 186 q 720 19 797 52 q 550 -14 644 -14 q 420 -2 475 -14 q 322 26 365 9 l 380 182 z "},"ß":{"ha":882,"x_min":92,"x_max":838,"o":"m 296 0 l 92 0 l 92 746 q 180 980 92 901 q 420 1059 269 1059 q 565 1030 499 1059 q 670 945 631 1002 q 709 804 709 888 q 699 725 709 755 q 674 674 688 696 q 649 629 660 653 q 638 564 638 604 q 659 513 638 538 q 709 463 679 489 q 768 405 739 436 q 818 334 798 374 q 838 244 838 295 q 803 105 838 163 q 699 17 768 47 q 532 -14 631 -14 q 461 -9 497 -14 q 394 4 425 -4 q 344 23 363 12 l 382 185 q 441 163 403 174 q 528 152 479 152 q 586 162 562 152 q 622 193 609 173 q 634 240 634 213 q 614 299 634 273 q 564 348 593 324 q 504 400 534 372 q 454 465 474 428 q 433 554 433 502 q 445 629 433 600 q 470 681 456 658 q 495 729 484 703 q 507 794 507 755 q 493 847 507 825 q 456 882 479 869 q 403 894 433 894 q 325 861 354 894 q 296 743 296 827 l 296 0 z "},"ﬁ":{"ha":854,"x_min":13,"x_max":770,"o":"m 121 0 l 121 760 q 208 980 121 904 q 448 1056 294 1056 q 562 1045 507 1056 q 675 1016 616 1034 l 646 847 q 566 868 609 858 q 462 878 522 878 q 361 848 395 878 q 327 760 327 818 l 327 0 l 121 0 m 470 585 l 13 585 l 13 734 l 470 734 l 470 585 m 770 0 l 564 0 l 564 734 l 770 734 l 770 0 z "},"$":{"ha":799,"x_min":61,"x_max":736,"o":"m 479 943 l 370 943 l 370 1144 l 479 1144 l 479 943 m 465 -146 l 355 -146 l 355 37 l 465 37 l 465 -146 m 530 261 q 517 324 530 298 q 475 369 504 349 q 396 408 446 389 q 240 481 307 442 q 136 578 173 520 q 98 725 98 635 q 138 872 98 810 q 250 968 178 934 q 416 1002 322 1002 q 585 964 513 1002 q 696 854 656 926 q 736 682 736 783 l 532 682 q 499 799 532 761 q 414 838 467 838 q 351 823 375 838 q 315 782 326 808 q 303 724 303 756 q 315 668 303 692 q 357 623 328 644 q 439 582 387 603 q 594 507 527 547 q 698 409 661 467 q 736 262 736 351 q 694 112 736 174 q 580 18 653 50 q 409 -14 507 -14 q 284 2 346 -14 q 172 57 222 19 q 91 158 121 95 q 61 313 61 220 l 266 313 q 278 234 266 266 q 311 184 290 203 q 356 158 331 165 q 409 150 382 150 q 477 164 450 150 q 517 204 504 178 q 530 261 530 229 z "},"¢":{"ha":804,"x_min":67,"x_max":713,"o":"m 477 695 l 339 695 l 339 894 l 477 894 l 477 695 m 477 -166 l 339 -166 l 339 32 l 477 32 l 477 -166 m 404 151 q 465 164 439 151 q 506 201 491 177 q 522 257 521 224 l 713 257 q 672 117 713 178 q 563 21 631 56 q 408 -14 494 -14 q 218 36 293 -14 q 105 170 142 85 q 67 357 67 254 l 67 376 q 104 564 67 480 q 217 698 142 648 q 406 747 293 747 q 567 712 498 747 q 674 613 635 677 q 713 458 713 548 l 522 458 q 507 520 521 492 q 468 566 494 549 q 402 583 441 583 q 320 553 349 583 q 282 477 292 524 q 272 376 272 430 l 272 357 q 281 255 272 302 q 320 180 291 208 q 404 151 349 151 z "},"£":{"ha":828,"x_min":68,"x_max":791,"o":"m 70 0 l 70 172 l 791 172 l 791 0 l 70 0 m 68 387 l 68 553 l 595 553 l 595 387 l 68 387 m 396 300 q 368 187 397 233 q 267 109 338 140 l 134 172 q 164 195 155 177 q 177 237 174 212 q 180 288 180 262 l 168 705 q 206 864 168 798 q 314 965 245 930 q 476 1000 384 1000 q 707 922 627 1000 q 787 715 787 844 l 585 715 q 570 783 585 758 q 531 818 555 808 q 477 829 506 829 q 407 798 435 829 q 380 705 380 767 l 396 300 z "},"¥":{"ha":747,"x_min":7,"x_max":740,"o":"m 669 382 l 59 382 l 59 504 l 669 504 l 669 382 m 669 186 l 59 186 l 59 307 l 669 307 l 669 186 m 519 987 l 740 987 l 467 374 l 351 374 l 323 485 l 519 987 m 427 479 l 397 374 l 281 374 l 7 987 l 229 987 l 427 479 m 477 0 l 264 0 l 264 515 l 477 515 l 477 0 z "},"¤":{"ha":958,"x_min":53,"x_max":911,"o":"m 205 412 q 226 297 205 351 q 285 203 248 243 q 373 140 323 163 q 481 117 423 117 q 588 140 538 117 q 676 203 638 163 q 735 297 714 243 q 757 412 757 351 q 735 528 757 475 q 676 622 714 581 q 588 684 638 662 q 481 706 538 706 q 373 684 423 706 q 285 622 323 662 q 226 528 248 581 q 205 412 205 475 m 77 412 q 108 580 77 503 q 195 715 140 657 q 324 805 251 772 q 481 837 397 837 q 637 805 564 837 q 766 715 710 772 q 852 580 821 657 q 884 412 884 503 q 852 245 884 322 q 766 110 821 168 q 637 19 710 52 q 481 -14 564 -14 q 324 19 397 -14 q 195 110 251 52 q 108 245 140 168 q 77 412 77 322 m 774 618 l 677 718 l 814 858 l 911 758 l 774 618 m 151 -18 l 53 81 l 190 220 l 288 122 l 151 -18 m 677 121 l 774 220 l 911 81 l 814 -18 l 677 121 m 53 758 l 151 857 l 288 718 l 190 618 l 53 758 z "},"!":{"ha":381,"x_min":81,"x_max":310,"o":"m 280 307 l 111 307 l 87 987 l 304 987 l 280 307 m 81 96 q 112 173 81 142 q 195 204 143 204 q 279 173 248 204 q 310 96 310 142 q 279 20 310 51 q 195 -12 248 -12 q 112 20 143 -12 q 81 96 81 51 z "},"¡":{"ha":399,"x_min":87,"x_max":315,"o":"m 116 430 l 286 430 l 309 -251 l 92 -251 l 116 430 m 315 640 q 284 563 315 594 q 201 531 253 531 q 118 563 149 531 q 87 640 87 594 q 118 716 87 686 q 201 747 149 747 q 284 716 253 747 q 315 640 315 686 z "},"?":{"ha":696,"x_min":28,"x_max":647,"o":"m 235 307 q 244 413 235 368 q 276 494 254 458 q 336 565 298 531 q 391 616 368 591 q 428 668 414 642 q 441 725 441 694 q 416 807 441 780 q 340 834 391 834 q 268 808 300 834 q 235 722 235 782 l 28 722 q 72 880 30 819 q 183 971 113 942 q 340 1001 254 1001 q 566 932 485 1001 q 647 734 647 864 q 624 630 647 675 q 563 547 601 586 q 481 467 526 509 q 429 396 442 433 q 414 307 416 359 l 235 307 m 213 100 q 244 177 213 146 q 328 208 275 208 q 411 177 380 208 q 441 100 441 146 q 411 23 441 54 q 328 -8 380 -8 q 244 23 275 -8 q 213 100 213 54 z "},"¿":{"ha":696,"x_min":47,"x_max":667,"o":"m 458 433 q 450 328 458 372 q 419 248 441 283 q 359 177 398 212 q 305 123 330 149 q 267 70 281 98 q 253 7 253 42 q 280 -70 253 -45 q 351 -94 307 -94 q 428 -68 395 -94 q 461 18 460 -41 l 667 18 q 624 -140 665 -78 q 512 -231 583 -201 q 355 -261 442 -261 q 129 -193 210 -261 q 47 5 47 -124 q 72 111 47 64 q 135 197 96 157 q 217 277 174 237 q 255 323 243 300 q 273 372 268 345 q 278 433 278 398 l 458 433 m 485 640 q 454 564 485 595 q 371 532 423 532 q 288 564 319 532 q 256 640 256 595 q 288 717 256 686 q 371 748 319 748 q 454 717 423 748 q 485 640 485 686 z "},",":{"ha":347,"x_min":24,"x_max":267,"o":"m 267 33 q 228 -125 267 -46 q 130 -254 189 -203 l 24 -199 q 57 -137 41 -169 q 85 -67 74 -106 q 96 21 96 -28 l 96 170 l 267 170 l 267 33 z "},".":{"ha":409,"x_min":84,"x_max":314,"o":"m 84 101 q 116 178 84 147 q 199 210 147 210 q 283 178 252 210 q 314 101 314 147 q 283 24 314 55 q 199 -7 252 -7 q 116 24 147 -7 q 84 101 84 55 z "},":":{"ha":399,"x_min":83,"x_max":313,"o":"m 83 101 q 114 178 83 147 q 197 210 146 210 q 281 178 250 210 q 313 101 313 147 q 281 24 313 55 q 197 -7 250 -7 q 114 24 146 -7 q 83 101 83 55 m 83 651 q 115 728 83 697 q 198 760 146 760 q 282 728 251 760 q 313 651 313 697 q 282 574 313 605 q 198 543 251 543 q 115 574 146 543 q 83 651 83 605 z "},";":{"ha":373,"x_min":40,"x_max":302,"o":"m 73 651 q 104 728 73 697 q 187 760 136 760 q 271 728 240 760 q 302 651 302 697 q 271 574 302 605 q 187 543 240 543 q 104 574 136 543 q 73 651 73 605 m 282 33 q 243 -125 282 -46 q 146 -254 205 -203 l 40 -199 q 73 -137 56 -169 q 100 -67 90 -106 q 111 21 111 -28 l 111 170 l 283 170 l 282 33 z "},"…":{"ha":1039,"x_min":89,"x_max":962,"o":"m 89 101 q 120 178 89 147 q 203 210 152 210 q 288 178 256 210 q 319 101 319 147 q 288 24 319 55 q 203 -7 256 -7 q 120 24 152 -7 q 89 101 89 55 m 413 101 q 445 178 413 147 q 528 210 476 210 q 612 178 581 210 q 643 101 643 147 q 612 24 643 55 q 528 -7 581 -7 q 445 24 476 -7 q 413 101 413 55 m 732 101 q 763 178 732 147 q 846 210 795 210 q 930 178 899 210 q 962 101 962 147 q 930 24 962 55 q 846 -7 899 -7 q 763 24 795 -7 q 732 101 732 55 z "},"·":{"ha":425,"x_min":94,"x_max":324,"o":"m 94 471 q 126 549 94 517 q 209 580 157 580 q 293 549 262 580 q 324 471 324 517 q 293 394 324 425 q 209 362 262 362 q 126 394 157 362 q 94 471 94 425 z "},"•":{"ha":503,"x_min":92,"x_max":420,"o":"m 92 519 q 136 634 92 589 q 254 679 180 679 q 376 634 332 679 q 420 519 420 589 l 420 494 q 376 381 420 425 q 256 337 332 337 q 136 381 180 337 q 92 494 92 425 l 92 519 z "},"_":{"ha":620,"x_min":1,"x_max":618,"o":"m 618 -160 l 1 -160 l 1 0 l 618 0 l 618 -160 z "},"-":{"ha":557,"x_min":81,"x_max":468,"o":"m 468 340 l 81 340 l 81 506 l 468 506 l 468 340 z "},"–":{"ha":874,"x_min":102,"x_max":807,"o":"m 807 399 l 102 399 l 102 567 l 807 567 l 807 399 z "},"—":{"ha":1057,"x_min":71,"x_max":1011,"o":"m 1011 399 l 71 399 l 71 567 l 1011 567 l 1011 399 z "},"'":{"ha":223,"x_min":39,"x_max":189,"o":"m 189 940 l 168 662 l 39 662 l 39 930 l 39 1042 l 189 1042 l 189 940 z "},"\"":{"ha":447,"x_min":38,"x_max":405,"o":"m 180 949 l 153 665 l 38 665 l 38 940 l 38 1042 l 180 1042 l 180 949 m 405 949 l 378 665 l 264 665 l 264 945 l 264 1042 l 405 1042 l 405 949 z "},"‘":{"ha":331,"x_min":71,"x_max":291,"o":"m 71 813 q 88 905 71 858 q 134 995 105 953 q 196 1067 162 1038 l 291 1012 q 249 925 267 972 q 231 813 231 878 l 231 708 l 71 708 l 71 813 z "},"’":{"ha":324,"x_min":41,"x_max":260,"o":"m 260 934 q 243 842 260 890 q 198 753 226 795 q 136 681 170 711 l 41 735 q 83 823 65 776 q 100 935 100 870 l 100 1042 l 260 1042 l 260 934 z "},"‚":{"ha":353,"x_min":47,"x_max":268,"o":"m 267 43 q 250 -48 267 -1 q 204 -138 233 -96 q 142 -210 176 -180 l 47 -155 q 87 -67 72 -115 q 102 44 102 -20 l 102 159 l 268 159 l 267 43 z "},"“":{"ha":573,"x_min":77,"x_max":532,"o":"m 77 813 q 94 905 77 858 q 139 995 111 953 q 201 1067 168 1038 l 296 1012 q 254 925 272 972 q 237 813 237 878 l 237 708 l 77 708 l 77 813 m 313 813 q 330 905 313 858 q 375 995 347 953 q 437 1067 404 1038 l 532 1012 q 490 925 508 972 q 473 813 473 878 l 473 708 l 313 708 l 313 813 z "},"”":{"ha":578,"x_min":50,"x_max":509,"o":"m 269 934 q 252 842 269 890 q 207 753 235 795 q 145 681 179 711 l 50 735 q 92 823 75 776 q 110 935 110 870 l 110 1042 l 269 1042 l 269 934 m 509 934 q 492 842 509 890 q 447 753 475 795 q 385 681 418 711 l 290 735 q 332 823 314 776 q 349 935 349 870 l 349 1042 l 509 1042 l 509 934 z "},"„":{"ha":570,"x_min":47,"x_max":505,"o":"m 267 43 q 251 -54 267 -3 q 209 -148 235 -104 q 148 -223 182 -193 l 47 -169 q 87 -76 72 -126 q 102 44 102 -25 l 102 180 l 268 180 l 267 43 m 505 43 q 488 -54 505 -3 q 442 -148 471 -104 q 380 -223 414 -193 l 279 -169 q 321 -76 303 -126 q 339 44 339 -25 l 339 180 l 505 180 l 505 43 z "},"(":{"ha":490,"x_min":84,"x_max":463,"o":"m 84 401 q 115 661 84 545 q 195 866 145 778 q 305 1011 245 954 q 423 1095 365 1069 l 463 985 q 388 909 425 957 q 320 790 351 861 q 273 623 290 719 q 255 403 255 526 l 255 384 q 273 164 255 260 q 320 -3 290 68 q 388 -123 351 -74 q 463 -200 425 -172 l 423 -308 q 305 -225 365 -283 q 195 -79 245 -167 q 115 125 145 9 q 84 385 84 242 l 84 401 z "},")":{"ha":491,"x_min":27,"x_max":417,"o":"m 417 385 q 386 132 417 248 q 302 -74 354 16 q 189 -223 251 -163 q 67 -308 127 -283 l 27 -200 q 102 -124 65 -172 q 169 -4 138 -75 q 217 164 199 68 q 235 384 235 260 l 235 403 q 216 623 235 526 q 168 790 198 719 q 101 910 137 862 q 27 987 64 959 l 67 1095 q 189 1009 127 1069 q 302 860 251 949 q 386 654 354 770 q 417 401 417 538 l 417 385 z "},"[":{"ha":389,"x_min":79,"x_max":378,"o":"m 378 994 l 285 994 l 285 -75 l 378 -75 l 378 -232 l 79 -232 l 79 1152 l 378 1152 l 378 994 z "},"]":{"ha":389,"x_min":9,"x_max":308,"o":"m 9 1152 l 308 1152 l 308 -232 l 9 -232 l 9 -75 l 103 -75 l 103 994 l 9 994 l 9 1152 z "},"{":{"ha":458,"x_min":32,"x_max":433,"o":"m 433 970 q 353 894 374 949 q 332 768 332 839 l 332 631 q 301 506 332 562 q 204 417 271 450 q 32 384 138 384 l 32 493 q 122 530 94 493 q 149 631 149 568 l 149 768 q 172 901 149 839 q 248 1010 194 963 q 394 1083 301 1057 l 433 970 m 394 -243 q 248 -170 301 -216 q 172 -61 194 -123 q 149 73 149 1 l 149 210 q 122 310 149 273 q 32 347 94 347 l 32 456 q 204 424 138 456 q 301 335 271 391 q 332 210 332 279 l 332 73 q 353 -53 332 2 q 433 -130 374 -108 l 394 -243 z "},"}":{"ha":458,"x_min":24,"x_max":426,"o":"m 64 1083 q 211 1010 158 1057 q 287 901 264 963 q 309 768 309 839 l 309 631 q 336 530 309 568 q 426 493 363 493 l 426 386 q 253 418 319 386 q 156 506 187 451 q 125 631 125 562 l 125 768 q 105 894 125 839 q 24 970 84 949 l 64 1083 m 24 -130 q 105 -53 84 -108 q 125 73 125 2 l 125 210 q 156 335 125 279 q 253 422 187 390 q 426 455 319 455 l 426 347 q 336 310 363 347 q 309 210 309 273 l 309 73 q 287 -61 309 1 q 211 -170 264 -123 q 64 -243 158 -216 l 24 -130 z "},"‹":{"ha":435,"x_min":73,"x_max":393,"o":"m 230 351 l 73 351 l 73 360 l 262 625 l 393 625 l 230 351 m 393 83 l 262 83 l 73 347 l 73 356 l 230 357 l 393 83 z "},"›":{"ha":420,"x_min":54,"x_max":373,"o":"m 216 357 l 373 356 l 373 347 l 184 82 l 54 82 l 216 357 m 184 625 l 373 360 l 373 351 l 216 351 l 54 625 l 184 625 z "},"+":{"ha":755,"x_min":37,"x_max":714,"o":"m 714 372 l 37 372 l 37 557 l 714 557 l 714 372 m 473 99 l 279 99 l 279 818 l 473 818 l 473 99 z "},"−":{"ha":769,"x_min":98,"x_max":686,"o":"m 686 399 l 98 399 l 98 567 l 686 567 l 686 399 z "},"±":{"ha":747,"x_min":60,"x_max":682,"o":"m 682 475 l 60 475 l 60 647 l 682 647 l 682 475 m 463 233 l 283 233 l 283 873 l 463 873 l 463 233 m 663 1 l 75 1 l 75 168 l 663 168 l 663 1 z "},"×":{"ha":738,"x_min":42,"x_max":691,"o":"m 42 259 l 570 798 l 691 679 l 163 140 l 42 259 m 42 679 l 162 798 l 690 259 l 570 140 l 42 679 z "},"÷":{"ha":792,"x_min":43,"x_max":742,"o":"m 742 384 l 43 384 l 43 546 l 742 546 l 742 384 m 277 739 q 309 815 277 785 q 393 845 340 845 q 476 815 445 845 q 507 739 507 785 q 476 663 507 692 q 393 633 445 633 q 309 663 340 633 q 277 739 277 692 m 277 188 q 309 264 277 235 q 393 294 340 294 q 476 264 445 294 q 507 188 507 235 q 476 112 507 142 q 393 82 445 82 q 309 112 340 82 q 277 188 277 142 z "},"=":{"ha":799,"x_min":92,"x_max":703,"o":"m 703 500 l 92 500 l 92 667 l 703 667 l 703 500 m 703 206 l 92 206 l 92 372 l 703 372 l 703 206 z "},"<":{"ha":707,"x_min":36,"x_max":623,"o":"m 623 286 l 623 88 l 36 334 l 36 477 l 197 433 l 623 286 m 197 401 l 36 359 l 36 503 l 623 749 l 623 552 l 197 401 z "},">":{"ha":717,"x_min":81,"x_max":673,"o":"m 81 552 l 81 748 l 673 502 l 673 359 l 509 406 l 81 552 m 509 435 l 673 477 l 673 334 l 81 88 l 81 284 l 509 435 z "},"¬":{"ha":766,"x_min":85,"x_max":652,"o":"m 652 429 l 85 429 l 85 547 l 652 547 l 652 429 m 652 253 l 515 253 l 515 494 l 652 494 l 652 253 z "},"∕":{"ha":499,"x_min":-12,"x_max":497,"o":"m 139 -85 l -12 -85 l 347 987 l 497 987 l 139 -85 z "},"/":{"ha":514,"x_min":-12,"x_max":497,"o":"m 139 -85 l -12 -85 l 347 987 l 497 987 l 139 -85 z "},"\\":{"ha":589,"x_min":-3,"x_max":619,"o":"m -3 987 l 207 987 l 619 -85 l 409 -85 l -3 987 z "},"⁄":{"ha":618,"x_min":18,"x_max":600,"o":"m 117 73 l 18 126 l 500 898 l 600 845 l 117 73 z "},"%":{"ha":1026,"x_min":64,"x_max":967,"o":"m 64 798 q 89 900 64 854 q 161 974 113 946 q 279 1002 209 1002 q 399 974 351 1002 q 472 900 448 946 q 496 798 496 854 l 496 745 q 472 644 496 690 q 400 570 448 598 q 281 543 352 543 q 161 570 210 543 q 89 644 113 598 q 64 745 64 690 l 64 798 m 199 745 q 208 704 199 723 q 235 672 217 684 q 281 660 254 660 q 326 672 308 660 q 352 704 343 684 q 360 745 360 723 l 360 798 q 351 840 360 821 q 325 872 342 860 q 279 884 307 884 q 235 872 253 884 q 208 840 217 860 q 199 798 199 821 l 199 745 m 534 242 q 559 344 534 298 q 632 418 584 390 q 751 446 680 446 q 870 418 823 446 q 943 344 918 390 q 967 242 967 298 l 967 190 q 943 88 967 134 q 871 14 919 42 q 752 -14 823 -14 q 632 14 681 -14 q 559 88 584 42 q 534 190 534 134 l 534 242 m 670 190 q 680 148 670 167 q 709 116 690 128 q 752 104 728 104 q 801 116 784 104 q 825 148 819 128 q 831 190 831 167 l 831 242 q 811 302 831 276 q 751 328 791 328 q 690 302 710 328 q 670 242 670 276 l 670 190 m 320 73 l 222 126 l 704 898 l 802 845 l 320 73 z "},"|":{"ha":354,"x_min":117,"x_max":239,"o":"m 239 -183 l 117 -183 l 117 987 l 239 987 l 239 -183 z "},"¦":{"ha":353,"x_min":85,"x_max":268,"o":"m 85 -183 l 85 357 l 268 357 l 268 -183 l 85 -183 m 268 473 l 85 473 l 85 987 l 268 987 l 268 473 z "},"©":{"ha":1089,"x_min":58,"x_max":1021,"o":"m 758 404 q 696 244 758 298 q 530 191 635 191 q 357 264 420 191 q 293 454 293 337 l 293 535 q 357 725 293 652 q 530 798 420 798 q 697 744 635 798 q 758 584 758 690 l 651 584 q 620 677 651 649 q 530 705 589 705 q 458 683 487 705 q 414 623 429 661 q 399 536 399 585 l 399 454 q 432 331 399 378 q 530 284 465 284 q 620 311 589 284 q 650 404 650 338 l 758 404 m 142 494 q 173 328 142 405 q 258 194 203 251 q 385 104 313 136 q 539 72 457 72 q 694 104 622 72 q 820 194 766 136 q 906 328 875 251 q 937 494 937 405 q 906 661 937 584 q 820 794 875 737 q 694 884 766 852 q 539 916 622 916 q 385 884 457 916 q 258 794 313 852 q 173 661 203 737 q 142 494 142 584 m 58 494 q 96 694 58 602 q 199 856 133 787 q 353 963 266 924 q 540 1001 440 1001 q 727 963 640 1001 q 880 856 814 924 q 983 694 946 787 q 1021 494 1021 602 q 983 294 1021 387 q 880 133 946 202 q 727 25 814 63 q 540 -14 640 -14 q 353 25 440 -14 q 199 133 266 64 q 96 294 133 202 q 58 494 58 387 z "},"®":{"ha":1089,"x_min":58,"x_max":1021,"o":"m 411 442 l 410 534 l 532 534 q 613 555 578 535 q 648 612 648 574 q 622 681 648 661 q 530 700 596 700 l 442 700 l 442 214 l 339 214 l 339 791 l 530 791 q 691 746 631 791 q 751 612 751 701 q 712 522 751 557 q 602 467 673 486 q 597 461 600 467 q 593 456 595 456 q 578 447 581 450 q 572 443 575 444 q 555 442 569 442 l 411 442 m 564 519 q 709 471 670 519 q 749 349 749 423 l 749 311 q 751 263 749 286 q 760 225 754 241 l 760 214 l 654 214 q 647 264 648 232 q 646 312 646 297 l 646 349 q 624 419 646 396 q 549 442 602 442 l 564 519 m 142 494 q 173 328 142 405 q 258 194 203 251 q 385 104 313 136 q 540 72 457 72 q 694 104 622 72 q 820 194 766 136 q 906 328 875 251 q 937 494 937 405 q 906 661 937 584 q 820 794 875 737 q 694 884 766 852 q 540 916 622 916 q 385 884 457 916 q 258 794 313 852 q 173 661 203 737 q 142 494 142 584 m 58 494 q 96 694 58 602 q 199 856 133 787 q 353 963 266 924 q 540 1001 440 1001 q 726 963 640 1001 q 880 856 813 924 q 984 694 946 787 q 1021 494 1021 602 q 984 294 1021 387 q 880 133 946 202 q 726 25 813 64 q 540 -14 640 -14 q 353 25 440 -14 q 199 133 266 64 q 96 294 133 202 q 58 494 58 387 z "},"°":{"ha":543,"x_min":85,"x_max":454,"o":"m 85 813 q 111 907 85 864 q 179 975 136 949 q 272 1001 221 1001 q 363 976 322 1001 q 430 907 405 950 q 454 813 454 865 q 430 719 454 762 q 363 652 405 677 q 272 627 322 627 q 179 652 221 627 q 111 719 136 677 q 85 813 85 762 m 187 812 q 212 753 187 777 q 272 729 237 729 q 329 753 306 729 q 353 812 353 777 q 329 874 353 850 q 272 899 306 899 q 212 874 237 899 q 187 812 187 850 z "},"*":{"ha":633,"x_min":18,"x_max":626,"o":"m 233 651 l 18 711 l 60 837 l 271 751 l 256 987 l 393 987 l 379 747 l 585 830 l 626 703 l 408 643 l 551 464 l 441 385 l 317 583 l 195 392 l 84 467 l 233 651 z "},"#":{"ha":825,"x_min":39,"x_max":796,"o":"m 316 987 l 443 987 l 272 0 l 144 0 l 316 987 m 568 987 l 696 987 l 525 0 l 397 0 l 568 987 m 91 585 l 91 705 l 796 705 l 796 585 l 91 585 m 39 278 l 39 399 l 745 399 l 745 278 l 39 278 z "},"&":{"ha":917,"x_min":46,"x_max":901,"o":"m 420 650 q 475 702 463 677 q 488 755 488 727 q 466 811 488 785 q 403 837 444 837 q 336 809 358 837 q 313 742 313 781 q 349 648 313 696 q 436 539 385 600 l 901 0 l 669 0 l 292 434 q 175 593 220 523 q 131 739 131 663 q 165 877 131 818 q 260 968 199 935 q 404 1002 321 1002 q 538 969 481 1002 q 627 884 595 937 q 658 768 658 831 q 641 683 658 723 q 595 611 625 644 q 526 550 565 578 l 307 394 q 272 355 283 374 q 256 316 260 335 q 252 279 252 298 q 268 213 252 242 q 313 167 284 184 q 380 151 342 151 q 486 175 435 151 q 578 244 537 199 q 643 351 619 290 q 667 488 667 413 l 841 488 q 806 272 841 371 q 687 105 771 173 q 674 96 682 102 q 663 87 667 90 q 526 11 597 35 q 369 -14 456 -14 q 197 22 269 -14 q 85 121 124 58 q 46 266 46 184 q 70 369 46 325 q 134 450 93 412 q 229 526 176 488 l 420 650 z "},"@":{"ha":1242,"x_min":47,"x_max":1193,"o":"m 1185 366 q 1165 229 1183 296 q 1111 106 1147 161 q 1020 18 1076 51 q 886 -14 964 -14 q 746 45 798 -14 q 701 204 694 104 l 736 597 l 878 597 l 843 204 q 844 152 840 172 q 860 120 849 132 q 884 103 870 108 q 912 99 898 99 q 987 134 956 99 q 1038 228 1019 168 q 1059 361 1057 288 q 1025 616 1067 507 q 890 786 983 726 q 650 846 798 846 q 412 777 513 846 q 256 586 312 707 q 193 313 200 466 q 212 97 186 190 q 291 -59 237 4 q 424 -153 344 -121 q 607 -185 503 -185 q 727 -172 666 -185 q 831 -139 789 -159 l 857 -247 q 739 -292 810 -277 q 604 -307 667 -307 q 299 -236 425 -307 q 110 -27 173 -165 q 54 313 47 111 q 105 570 60 452 q 227 775 149 688 q 412 911 304 863 q 653 959 520 959 q 951 885 830 959 q 1133 677 1073 810 q 1185 366 1193 544 m 506 293 q 510 194 501 234 q 539 134 518 154 q 594 113 561 113 q 634 125 612 113 q 677 170 656 138 q 713 261 699 201 l 773 188 q 683 38 742 89 q 545 -12 623 -12 q 432 26 479 -12 q 363 132 385 64 q 349 293 341 201 q 407 494 363 409 q 519 625 452 578 q 667 671 587 671 q 791 649 747 671 q 878 597 836 627 l 806 498 q 755 531 787 515 q 680 548 724 548 q 593 518 629 548 q 535 432 557 489 q 506 293 514 376 z "},"§":{"ha":876,"x_min":62,"x_max":804,"o":"m 459 195 q 564 227 527 195 q 602 309 602 259 q 584 362 602 340 q 524 404 566 384 q 407 446 481 423 q 232 509 305 474 q 119 599 159 545 q 80 741 80 654 q 124 878 80 820 q 248 969 168 937 q 435 1001 328 1001 q 695 926 600 1001 q 789 712 789 852 l 585 712 q 568 775 585 747 q 518 819 551 803 q 435 836 485 836 q 321 808 356 836 q 286 743 286 781 q 301 691 286 711 q 357 654 316 671 q 477 617 399 637 q 654 555 581 591 q 765 466 727 519 q 804 330 804 412 q 710 155 804 214 q 459 96 616 96 l 459 195 m 397 494 q 299 463 330 494 q 268 383 268 431 q 283 327 268 349 q 340 287 298 305 q 459 246 381 269 q 637 183 564 218 q 748 93 710 148 q 787 -50 787 38 q 690 -238 787 -173 q 434 -304 593 -304 q 298 -290 365 -304 q 179 -244 232 -276 q 94 -157 125 -212 q 62 -22 62 -103 l 268 -22 q 282 -80 268 -58 q 320 -116 296 -103 q 374 -133 344 -128 q 434 -138 404 -138 q 544 -115 506 -138 q 582 -50 582 -91 q 565 -2 582 -22 q 506 36 548 18 q 388 75 463 54 q 214 137 287 102 q 102 226 141 172 q 63 361 63 279 q 154 535 63 474 q 397 596 245 596 l 397 494 z "},"¶":{"ha":681,"x_min":52,"x_max":593,"o":"m 441 0 l 441 353 l 385 353 q 203 394 277 353 q 90 507 129 435 q 52 670 52 578 q 90 833 52 761 q 203 946 129 905 q 385 987 277 987 l 593 987 l 593 0 l 441 0 z "},"^":{"ha":611,"x_min":29,"x_max":583,"o":"m 190 494 l 29 494 l 232 987 l 347 987 l 312 815 l 190 494 m 300 815 l 265 987 l 380 987 l 583 494 l 422 494 l 300 815 z "},"~":{"ha":896,"x_min":70,"x_max":825,"o":"m 825 540 q 796 387 825 452 q 716 288 767 323 q 598 252 665 252 q 501 274 544 252 q 410 341 458 295 q 358 382 383 368 q 307 397 334 397 q 244 363 268 397 q 221 278 221 329 l 70 280 q 99 432 70 369 q 178 530 127 496 q 295 564 229 564 q 394 542 349 564 q 485 475 439 519 q 537 433 513 448 q 587 419 562 419 q 650 454 626 419 q 675 541 675 490 l 825 540 z "},"Á":{"ha":939,"x_min":3,"x_max":937,"o":"m 231 0 l 3 0 l 370 987 l 514 987 l 494 800 l 231 0 m 446 800 l 423 987 l 568 987 l 937 0 l 709 0 l 446 800 m 703 197 l 179 197 l 179 369 l 703 369 l 703 197 m 503 1252 l 726 1252 l 536 1041 l 370 1041 l 503 1252 z "},"Â":{"ha":939,"x_min":3,"x_max":937,"o":"m 231 0 l 3 0 l 370 987 l 514 987 l 494 800 l 231 0 m 446 800 l 423 987 l 568 987 l 937 0 l 709 0 l 446 800 m 703 197 l 179 197 l 179 369 l 703 369 l 703 197 m 739 1062 l 739 1054 l 577 1054 l 471 1149 l 368 1054 l 208 1054 l 208 1064 l 413 1253 l 531 1253 l 739 1062 z "},"Ä":{"ha":939,"x_min":3,"x_max":937,"o":"m 231 0 l 3 0 l 370 987 l 514 987 l 494 800 l 231 0 m 446 800 l 423 987 l 568 987 l 937 0 l 709 0 l 446 800 m 703 197 l 179 197 l 179 369 l 703 369 l 703 197 m 207 1136 q 234 1198 207 1173 q 303 1224 262 1224 q 373 1198 345 1224 q 400 1136 400 1173 q 373 1073 400 1099 q 303 1048 345 1048 q 234 1073 262 1048 q 207 1136 207 1099 m 542 1135 q 569 1198 542 1173 q 638 1223 597 1223 q 707 1198 680 1223 q 734 1135 734 1173 q 707 1073 734 1098 q 638 1047 680 1047 q 569 1073 597 1047 q 542 1135 542 1098 z "},"À":{"ha":939,"x_min":3,"x_max":937,"o":"m 231 0 l 3 0 l 370 987 l 514 987 l 494 800 l 231 0 m 446 800 l 423 987 l 568 987 l 937 0 l 709 0 l 446 800 m 703 197 l 179 197 l 179 369 l 703 369 l 703 197 m 584 1041 l 416 1041 l 227 1252 l 450 1252 l 584 1041 z "},"Å":{"ha":939,"x_min":3,"x_max":937,"o":"m 231 0 l 3 0 l 370 987 l 514 987 l 494 800 l 231 0 m 446 800 l 423 987 l 568 987 l 937 0 l 709 0 l 446 800 m 703 197 l 179 197 l 179 369 l 703 369 l 703 197 m 321 1173 q 364 1272 321 1231 q 473 1313 407 1313 q 582 1272 538 1313 q 625 1173 625 1231 q 582 1077 625 1117 q 473 1037 538 1037 q 364 1077 407 1037 q 321 1173 321 1117 m 400 1173 q 420 1123 400 1144 q 473 1101 439 1101 q 526 1123 506 1101 q 545 1173 545 1144 q 526 1225 545 1203 q 473 1247 506 1247 q 420 1225 439 1247 q 400 1173 400 1203 z "},"Ã":{"ha":939,"x_min":3,"x_max":937,"o":"m 231 0 l 3 0 l 370 987 l 514 987 l 494 800 l 231 0 m 446 800 l 423 987 l 568 987 l 937 0 l 709 0 l 446 800 m 703 197 l 179 197 l 179 369 l 703 369 l 703 197 z "},"Ç":{"ha":910,"x_min":56,"x_max":868,"o":"m 867 331 q 812 153 861 231 q 676 31 763 75 q 467 -14 589 -14 q 247 44 339 -14 q 105 210 155 102 q 56 463 56 317 l 56 524 q 107 778 56 671 q 250 943 158 885 q 468 1002 342 1002 q 679 956 593 1002 q 811 831 764 910 q 868 650 859 751 l 655 650 q 608 782 649 736 q 468 827 567 827 q 359 795 402 827 q 294 696 315 763 q 272 525 272 629 l 272 463 q 291 294 272 361 q 353 194 311 227 q 467 161 396 161 q 568 179 528 161 q 629 236 608 198 q 654 331 650 274 l 867 331 m 545 4 l 536 -35 q 606 -68 574 -42 q 638 -153 638 -94 q 577 -272 638 -227 q 397 -317 515 -317 l 392 -199 q 430 -194 414 -199 q 455 -176 446 -189 q 465 -145 465 -164 q 442 -107 465 -118 q 370 -94 420 -97 l 391 4 l 545 4 z "},"É":{"ha":781,"x_min":85,"x_max":751,"o":"m 751 0 l 230 0 l 230 172 l 751 172 l 751 0 m 298 0 l 85 0 l 85 987 l 298 987 l 298 0 m 684 425 l 230 425 l 230 591 l 684 591 l 684 425 m 751 815 l 230 815 l 230 987 l 751 987 l 751 815 m 464 1254 l 686 1254 l 497 1043 l 331 1043 l 464 1254 z "},"Ê":{"ha":781,"x_min":85,"x_max":751,"o":"m 751 0 l 230 0 l 230 172 l 751 172 l 751 0 m 298 0 l 85 0 l 85 987 l 298 987 l 298 0 m 684 425 l 230 425 l 230 591 l 684 591 l 684 425 m 751 815 l 230 815 l 230 987 l 751 987 l 751 815 m 700 1064 l 700 1056 l 538 1056 l 432 1152 l 328 1056 l 169 1056 l 169 1066 l 374 1255 l 492 1255 l 700 1064 z "},"Ë":{"ha":781,"x_min":85,"x_max":751,"o":"m 751 0 l 230 0 l 230 172 l 751 172 l 751 0 m 298 0 l 85 0 l 85 987 l 298 987 l 298 0 m 684 425 l 230 425 l 230 591 l 684 591 l 684 425 m 751 815 l 230 815 l 230 987 l 751 987 l 751 815 m 168 1138 q 195 1200 168 1175 q 264 1226 222 1226 q 333 1200 306 1226 q 361 1138 361 1175 q 333 1075 361 1101 q 264 1050 306 1050 q 195 1075 222 1050 q 168 1138 168 1101 m 503 1137 q 530 1200 503 1175 q 599 1225 557 1225 q 668 1200 640 1225 q 695 1137 695 1175 q 668 1075 695 1100 q 599 1049 640 1049 q 530 1075 557 1049 q 503 1137 503 1100 z "},"È":{"ha":781,"x_min":85,"x_max":751,"o":"m 751 0 l 230 0 l 230 172 l 751 172 l 751 0 m 298 0 l 85 0 l 85 987 l 298 987 l 298 0 m 684 425 l 230 425 l 230 591 l 684 591 l 684 425 m 751 815 l 230 815 l 230 987 l 751 987 l 751 815 m 545 1043 l 377 1043 l 188 1254 l 410 1254 l 545 1043 z "},"Ð":{"ha":902,"x_min":-16,"x_max":845,"o":"m 177 0 l 178 172 l 391 172 q 522 206 469 172 q 602 308 575 241 q 629 473 629 375 l 629 516 q 602 681 629 614 q 522 781 575 747 q 392 815 469 815 l 173 815 l 173 987 l 392 987 q 628 928 526 987 q 787 762 730 868 q 845 515 845 656 l 845 473 q 787 225 845 332 q 628 59 730 119 q 391 0 526 0 l 177 0 m 298 0 l 85 0 l 85 987 l 298 987 l 298 0 m 465 434 l -16 434 l -16 561 l 465 561 l 465 434 z "},"Í":{"ha":409,"x_min":98,"x_max":458,"o":"m 311 0 l 98 0 l 98 987 l 311 987 l 311 0 m 235 1254 l 458 1254 l 269 1043 l 102 1043 l 235 1254 z "},"Î":{"ha":409,"x_min":-60,"x_max":471,"o":"m 311 0 l 98 0 l 98 987 l 311 987 l 311 0 m 471 1064 l 471 1056 l 309 1056 l 203 1152 l 100 1056 l -60 1056 l -60 1066 l 145 1255 l 263 1255 l 471 1064 z "},"Ï":{"ha":409,"x_min":-61,"x_max":467,"o":"m 311 0 l 98 0 l 98 987 l 311 987 l 311 0 m -61 1138 q -34 1200 -61 1175 q 35 1226 -6 1226 q 105 1200 77 1226 q 132 1138 132 1175 q 105 1075 132 1101 q 35 1050 77 1050 q -34 1075 -6 1050 q -61 1138 -61 1101 m 274 1137 q 301 1200 274 1175 q 370 1225 329 1225 q 439 1200 412 1225 q 467 1137 467 1175 q 439 1075 467 1100 q 370 1049 412 1049 q 301 1075 329 1049 q 274 1137 274 1100 z "},"Ì":{"ha":409,"x_min":-41,"x_max":316,"o":"m 311 0 l 98 0 l 98 987 l 311 987 l 311 0 m 317 1043 l 149 1043 l -40 1254 l 182 1254 l 317 1043 z "},"Ñ":{"ha":980,"x_min":85,"x_max":894,"o":"m 894 0 l 681 0 l 298 635 l 298 0 l 85 0 l 85 987 l 298 987 l 682 351 l 682 987 l 894 987 l 894 0 z "},"Ó":{"ha":960,"x_min":56,"x_max":903,"o":"m 903 473 q 849 213 903 321 q 701 45 795 104 q 481 -14 606 -14 q 260 45 356 -14 q 110 213 164 104 q 56 473 56 321 l 56 513 q 110 774 56 665 q 259 942 163 883 q 479 1001 355 1001 q 700 942 604 1001 q 849 774 795 883 q 903 513 903 665 l 903 473 m 688 515 q 663 686 688 616 q 592 790 639 755 q 479 825 545 825 q 366 790 412 825 q 296 686 320 755 q 272 515 272 616 l 272 473 q 296 303 272 372 q 367 197 321 233 q 481 161 414 161 q 593 197 547 161 q 664 303 640 233 q 688 473 688 372 l 688 515 m 511 1252 l 733 1252 l 544 1041 l 378 1041 l 511 1252 z "},"Ô":{"ha":960,"x_min":56,"x_max":903,"o":"m 903 473 q 849 213 903 321 q 701 45 795 104 q 481 -14 606 -14 q 260 45 356 -14 q 110 213 164 104 q 56 473 56 321 l 56 513 q 110 774 56 665 q 259 942 163 883 q 479 1001 355 1001 q 700 942 604 1001 q 849 774 795 883 q 903 513 903 665 l 903 473 m 688 515 q 663 686 688 616 q 592 790 639 755 q 479 825 545 825 q 366 790 412 825 q 296 686 320 755 q 272 515 272 616 l 272 473 q 296 303 272 372 q 367 197 321 233 q 481 161 414 161 q 593 197 547 161 q 664 303 640 233 q 688 473 688 372 l 688 515 m 747 1062 l 747 1054 l 585 1054 l 479 1149 l 375 1054 l 216 1054 l 216 1064 l 420 1253 l 538 1253 l 747 1062 z "},"Ö":{"ha":960,"x_min":56,"x_max":903,"o":"m 903 473 q 849 213 903 321 q 701 45 795 104 q 481 -14 606 -14 q 260 45 356 -14 q 110 213 164 104 q 56 473 56 321 l 56 513 q 110 774 56 665 q 259 942 163 883 q 479 1001 355 1001 q 700 942 604 1001 q 849 774 795 883 q 903 513 903 665 l 903 473 m 688 515 q 663 686 688 616 q 592 790 639 755 q 479 825 545 825 q 366 790 412 825 q 296 686 320 755 q 272 515 272 616 l 272 473 q 296 303 272 372 q 367 197 321 233 q 481 161 414 161 q 593 197 547 161 q 664 303 640 233 q 688 473 688 372 l 688 515 m 215 1136 q 242 1198 215 1173 q 311 1224 270 1224 q 381 1198 353 1224 q 408 1136 408 1173 q 381 1073 408 1099 q 311 1048 353 1048 q 242 1073 270 1048 q 215 1136 215 1099 m 550 1135 q 577 1198 550 1173 q 646 1223 605 1223 q 715 1198 688 1223 q 743 1135 743 1173 q 715 1073 743 1098 q 646 1047 688 1047 q 577 1073 605 1047 q 550 1135 550 1098 z "},"Ò":{"ha":960,"x_min":56,"x_max":903,"o":"m 903 473 q 849 213 903 321 q 701 45 795 104 q 481 -14 606 -14 q 260 45 356 -14 q 110 213 164 104 q 56 473 56 321 l 56 513 q 110 774 56 665 q 259 942 163 883 q 479 1001 355 1001 q 700 942 604 1001 q 849 774 795 883 q 903 513 903 665 l 903 473 m 688 515 q 663 686 688 616 q 592 790 639 755 q 479 825 545 825 q 366 790 412 825 q 296 686 320 755 q 272 515 272 616 l 272 473 q 296 303 272 372 q 367 197 321 233 q 481 161 414 161 q 593 197 547 161 q 664 303 640 233 q 688 473 688 372 l 688 515 m 592 1041 l 425 1041 l 235 1252 l 458 1252 l 592 1041 z "},"Ø":{"ha":958,"x_min":61,"x_max":908,"o":"m 230 -65 l 98 -65 l 742 1030 l 873 1030 l 230 -65 m 908 473 q 854 213 908 321 q 706 45 801 104 q 486 -14 611 -14 q 266 45 361 -14 q 115 213 170 104 q 61 473 61 321 l 61 513 q 115 774 61 665 q 264 942 169 883 q 485 1001 360 1001 q 705 942 610 1001 q 854 774 800 883 q 908 513 908 665 l 908 473 m 693 515 q 669 686 693 616 q 597 790 644 755 q 485 825 551 825 q 372 790 418 825 q 301 686 326 755 q 277 515 277 616 l 277 473 q 302 303 277 372 q 373 197 326 233 q 486 161 419 161 q 598 197 552 161 q 669 303 645 233 q 693 473 693 372 l 693 515 z "},"Õ":{"ha":960,"x_min":56,"x_max":903,"o":"m 903 473 q 849 213 903 321 q 701 45 795 104 q 481 -14 606 -14 q 260 45 356 -14 q 110 213 164 104 q 56 473 56 321 l 56 513 q 110 774 56 665 q 259 942 163 883 q 479 1001 355 1001 q 700 942 604 1001 q 849 774 795 883 q 903 513 903 665 l 903 473 m 688 515 q 663 686 688 616 q 592 790 639 755 q 479 825 545 825 q 366 790 412 825 q 296 686 320 755 q 272 515 272 616 l 272 473 q 296 303 272 372 q 367 197 321 233 q 481 161 414 161 q 593 197 547 161 q 664 303 640 233 q 688 473 688 372 l 688 515 z "},"Ú":{"ha":916,"x_min":77,"x_max":839,"o":"m 839 987 l 839 338 q 790 145 839 224 q 655 26 741 66 q 458 -14 570 -14 q 260 26 347 -14 q 125 145 174 66 q 77 338 77 224 l 77 987 l 290 987 l 290 338 q 310 235 290 275 q 368 177 330 195 q 458 158 406 158 q 549 177 512 158 q 606 235 587 195 q 625 338 625 275 l 625 987 l 839 987 m 486 1252 l 709 1252 l 519 1041 l 353 1041 l 486 1252 z "},"Û":{"ha":916,"x_min":77,"x_max":839,"o":"m 839 987 l 839 338 q 790 145 839 224 q 655 26 741 66 q 458 -14 570 -14 q 260 26 347 -14 q 125 145 174 66 q 77 338 77 224 l 77 987 l 290 987 l 290 338 q 310 235 290 275 q 368 177 330 195 q 458 158 406 158 q 549 177 512 158 q 606 235 587 195 q 625 338 625 275 l 625 987 l 839 987 m 722 1062 l 722 1054 l 560 1054 l 454 1149 l 351 1054 l 191 1054 l 191 1064 l 396 1253 l 514 1253 l 722 1062 z "},"Ü":{"ha":916,"x_min":77,"x_max":839,"o":"m 839 987 l 839 338 q 790 145 839 224 q 655 26 741 66 q 458 -14 570 -14 q 260 26 347 -14 q 125 145 174 66 q 77 338 77 224 l 77 987 l 290 987 l 290 338 q 310 235 290 275 q 368 177 330 195 q 458 158 406 158 q 549 177 512 158 q 606 235 587 195 q 625 338 625 275 l 625 987 l 839 987 m 191 1136 q 218 1198 191 1173 q 287 1224 245 1224 q 356 1198 329 1224 q 384 1136 384 1173 q 356 1073 384 1099 q 287 1048 329 1048 q 218 1073 245 1048 q 191 1136 191 1099 m 526 1135 q 553 1198 526 1173 q 622 1223 581 1223 q 691 1198 663 1223 q 718 1135 718 1173 q 691 1073 718 1098 q 622 1047 663 1047 q 553 1073 581 1047 q 526 1135 526 1098 z "},"Ù":{"ha":916,"x_min":77,"x_max":839,"o":"m 839 987 l 839 338 q 790 145 839 224 q 655 26 741 66 q 458 -14 570 -14 q 260 26 347 -14 q 125 145 174 66 q 77 338 77 224 l 77 987 l 290 987 l 290 338 q 310 235 290 275 q 368 177 330 195 q 458 158 406 158 q 549 177 512 158 q 606 235 587 195 q 625 338 625 275 l 625 987 l 839 987 m 568 1041 l 400 1041 l 211 1252 l 433 1252 l 568 1041 z "},"Ý":{"ha":862,"x_min":0,"x_max":861,"o":"m 431 549 l 629 987 l 861 987 l 539 357 l 539 0 l 323 0 l 323 357 l 0 987 l 233 987 l 431 549 m 463 1252 l 686 1252 l 496 1041 l 330 1041 l 463 1252 z "},"á":{"ha":744,"x_min":43,"x_max":701,"o":"m 466 489 q 441 568 466 538 q 363 597 417 597 q 311 587 333 597 q 277 558 288 576 q 265 512 265 539 l 60 512 q 99 630 60 577 q 208 715 138 684 q 374 747 279 747 q 527 719 460 747 q 633 632 594 690 q 671 488 671 574 l 671 181 q 679 78 671 116 q 701 12 687 40 l 701 0 l 495 0 q 473 78 480 31 q 466 173 466 125 l 466 489 m 494 331 l 389 331 q 281 299 315 331 q 248 221 248 267 q 273 164 248 186 q 338 142 297 142 q 412 158 381 142 q 459 198 443 175 q 475 241 476 222 l 528 153 q 499 97 517 126 q 454 43 481 68 q 386 2 426 18 q 293 -14 347 -14 q 167 15 224 -14 q 77 93 110 43 q 43 207 43 142 q 129 386 43 322 q 383 449 214 449 l 492 449 l 494 331 m 404 1042 l 626 1042 l 437 831 l 271 831 l 404 1042 z "},"â":{"ha":744,"x_min":43,"x_max":701,"o":"m 466 489 q 441 568 466 538 q 363 597 417 597 q 311 587 333 597 q 277 558 288 576 q 265 512 265 539 l 60 512 q 99 630 60 577 q 208 715 138 684 q 374 747 279 747 q 527 719 460 747 q 633 632 594 690 q 671 488 671 574 l 671 181 q 679 78 671 116 q 701 12 687 40 l 701 0 l 495 0 q 473 78 480 31 q 466 173 466 125 l 466 489 m 494 331 l 389 331 q 281 299 315 331 q 248 221 248 267 q 273 164 248 186 q 338 142 297 142 q 412 158 381 142 q 459 198 443 175 q 475 241 476 222 l 528 153 q 499 97 517 126 q 454 43 481 68 q 386 2 426 18 q 293 -14 347 -14 q 167 15 224 -14 q 77 93 110 43 q 43 207 43 142 q 129 386 43 322 q 383 449 214 449 l 492 449 l 494 331 m 640 852 l 640 844 l 477 844 l 372 939 l 268 844 l 109 844 l 109 854 l 313 1042 l 431 1042 l 640 852 z "},"ä":{"ha":744,"x_min":43,"x_max":701,"o":"m 466 489 q 441 568 466 538 q 363 597 417 597 q 311 587 333 597 q 277 558 288 576 q 265 512 265 539 l 60 512 q 99 630 60 577 q 208 715 138 684 q 374 747 279 747 q 527 719 460 747 q 633 632 594 690 q 671 488 671 574 l 671 181 q 679 78 671 116 q 701 12 687 40 l 701 0 l 495 0 q 473 78 480 31 q 466 173 466 125 l 466 489 m 494 331 l 389 331 q 281 299 315 331 q 248 221 248 267 q 273 164 248 186 q 338 142 297 142 q 412 158 381 142 q 459 198 443 175 q 475 241 476 222 l 528 153 q 499 97 517 126 q 454 43 481 68 q 386 2 426 18 q 293 -14 347 -14 q 167 15 224 -14 q 77 93 110 43 q 43 207 43 142 q 129 386 43 322 q 383 449 214 449 l 492 449 l 494 331 m 107 926 q 135 988 107 962 q 203 1014 162 1014 q 273 988 245 1014 q 300 926 300 962 q 273 863 300 888 q 203 838 245 838 q 135 863 162 838 q 107 926 107 888 m 442 925 q 470 988 442 962 q 538 1013 497 1013 q 607 988 580 1013 q 635 925 635 962 q 607 862 635 888 q 538 837 580 837 q 470 862 497 837 q 442 925 442 888 z "},"à":{"ha":744,"x_min":43,"x_max":701,"o":"m 466 489 q 441 568 466 538 q 363 597 417 597 q 311 587 333 597 q 277 558 288 576 q 265 512 265 539 l 60 512 q 99 630 60 577 q 208 715 138 684 q 374 747 279 747 q 527 719 460 747 q 633 632 594 690 q 671 488 671 574 l 671 181 q 679 78 671 116 q 701 12 687 40 l 701 0 l 495 0 q 473 78 480 31 q 466 173 466 125 l 466 489 m 494 331 l 389 331 q 281 299 315 331 q 248 221 248 267 q 273 164 248 186 q 338 142 297 142 q 412 158 381 142 q 459 198 443 175 q 475 241 476 222 l 528 153 q 499 97 517 126 q 454 43 481 68 q 386 2 426 18 q 293 -14 347 -14 q 167 15 224 -14 q 77 93 110 43 q 43 207 43 142 q 129 386 43 322 q 383 449 214 449 l 492 449 l 494 331 m 484 831 l 317 831 l 127 1042 l 350 1042 l 484 831 z "},"å":{"ha":744,"x_min":43,"x_max":701,"o":"m 466 489 q 441 568 466 538 q 363 597 417 597 q 311 587 333 597 q 277 558 288 576 q 265 512 265 539 l 60 512 q 99 630 60 577 q 208 715 138 684 q 374 747 279 747 q 527 719 460 747 q 633 632 594 690 q 671 488 671 574 l 671 181 q 679 78 671 116 q 701 12 687 40 l 701 0 l 495 0 q 473 78 480 31 q 466 173 466 125 l 466 489 m 494 331 l 389 331 q 281 299 315 331 q 248 221 248 267 q 273 164 248 186 q 338 142 297 142 q 412 158 381 142 q 459 198 443 175 q 475 241 476 222 l 528 153 q 499 97 517 126 q 454 43 481 68 q 386 2 426 18 q 293 -14 347 -14 q 167 15 224 -14 q 77 93 110 43 q 43 207 43 142 q 129 386 43 322 q 383 449 214 449 l 492 449 l 494 331 m 221 963 q 264 1062 221 1021 q 373 1103 307 1103 q 482 1062 439 1103 q 525 963 525 1021 q 482 867 525 907 q 373 827 439 827 q 264 867 307 827 q 221 963 221 907 m 300 963 q 320 912 300 934 q 373 891 340 891 q 426 912 406 891 q 446 963 446 934 q 426 1015 446 993 q 373 1037 406 1037 q 320 1015 340 1037 q 300 963 300 993 z "},"ã":{"ha":744,"x_min":43,"x_max":701,"o":"m 466 489 q 441 568 466 538 q 363 597 417 597 q 311 587 333 597 q 277 558 288 576 q 265 512 265 539 l 60 512 q 99 630 60 577 q 208 715 138 684 q 374 747 279 747 q 527 719 460 747 q 633 632 594 690 q 671 488 671 574 l 671 181 q 679 78 671 116 q 701 12 687 40 l 701 0 l 495 0 q 473 78 480 31 q 466 173 466 125 l 466 489 m 494 331 l 389 331 q 281 299 315 331 q 248 221 248 267 q 273 164 248 186 q 338 142 297 142 q 412 158 381 142 q 459 198 443 175 q 475 241 476 222 l 528 153 q 499 97 517 126 q 454 43 481 68 q 386 2 426 18 q 293 -14 347 -14 q 167 15 224 -14 q 77 93 110 43 q 43 207 43 142 q 129 386 43 322 q 383 449 214 449 l 492 449 l 494 331 z "},"ç":{"ha":725,"x_min":43,"x_max":690,"o":"m 380 151 q 441 164 414 151 q 482 201 467 177 q 497 257 496 224 l 690 257 q 648 117 689 178 q 538 21 608 56 q 383 -14 469 -14 q 194 36 269 -14 q 80 170 118 85 q 43 357 43 254 l 43 376 q 80 564 43 480 q 194 698 118 648 q 382 747 269 747 q 542 712 473 747 q 650 613 611 677 q 690 458 689 548 l 497 458 q 483 520 496 492 q 444 566 470 549 q 378 583 417 583 q 296 553 324 583 q 258 477 268 524 q 248 376 248 430 l 248 357 q 257 255 248 302 q 296 180 267 208 q 380 151 325 151 m 457 4 l 449 -35 q 519 -68 487 -42 q 551 -153 551 -94 q 489 -272 551 -227 q 309 -317 428 -317 l 304 -199 q 342 -194 326 -199 q 368 -176 358 -189 q 377 -145 377 -164 q 355 -107 377 -118 q 282 -94 332 -97 l 303 4 l 457 4 z "},"é":{"ha":753,"x_min":47,"x_max":719,"o":"m 416 -14 q 217 35 300 -14 q 91 163 135 83 q 47 342 47 244 l 47 368 q 89 564 47 478 q 208 699 131 650 q 393 747 286 747 q 572 703 499 747 q 682 577 644 658 q 719 387 719 496 l 719 300 l 134 300 l 134 437 l 517 437 l 517 454 q 504 521 517 492 q 463 566 490 550 q 391 583 435 583 q 311 554 341 583 q 266 477 280 526 q 252 368 252 429 l 252 342 q 273 243 252 286 q 334 176 294 200 q 429 152 373 152 q 526 171 481 152 q 604 232 572 191 l 703 119 q 596 28 668 69 q 416 -14 524 -14 m 399 1042 l 622 1042 l 433 831 l 267 831 l 399 1042 z "},"ê":{"ha":753,"x_min":47,"x_max":719,"o":"m 416 -14 q 217 35 300 -14 q 91 163 135 83 q 47 342 47 244 l 47 368 q 89 564 47 478 q 208 699 131 650 q 393 747 286 747 q 572 703 499 747 q 682 577 644 658 q 719 387 719 496 l 719 300 l 134 300 l 134 437 l 517 437 l 517 454 q 504 521 517 492 q 463 566 490 550 q 391 583 435 583 q 311 554 341 583 q 266 477 280 526 q 252 368 252 429 l 252 342 q 273 243 252 286 q 334 176 294 200 q 429 152 373 152 q 526 171 481 152 q 604 232 572 191 l 703 119 q 596 28 668 69 q 416 -14 524 -14 m 635 852 l 635 844 l 473 844 l 368 940 l 264 844 l 104 844 l 104 854 l 309 1043 l 427 1043 l 635 852 z "},"ë":{"ha":753,"x_min":47,"x_max":719,"o":"m 416 -14 q 217 35 300 -14 q 91 163 135 83 q 47 342 47 244 l 47 368 q 89 564 47 478 q 208 699 131 650 q 393 747 286 747 q 572 703 499 747 q 682 577 644 658 q 719 387 719 496 l 719 300 l 134 300 l 134 437 l 517 437 l 517 454 q 504 521 517 492 q 463 566 490 550 q 391 583 435 583 q 311 554 341 583 q 266 477 280 526 q 252 368 252 429 l 252 342 q 273 243 252 286 q 334 176 294 200 q 429 152 373 152 q 526 171 481 152 q 604 232 572 191 l 703 119 q 596 28 668 69 q 416 -14 524 -14 m 103 926 q 131 989 103 963 q 199 1015 158 1015 q 269 989 241 1015 q 296 926 296 963 q 269 864 296 889 q 199 838 241 838 q 131 864 158 838 q 103 926 103 889 m 438 926 q 466 988 438 963 q 534 1014 493 1014 q 603 988 576 1014 q 631 926 631 963 q 603 863 631 888 q 534 838 576 838 q 466 863 493 838 q 438 926 438 888 z "},"è":{"ha":753,"x_min":47,"x_max":719,"o":"m 416 -14 q 217 35 300 -14 q 91 163 135 83 q 47 342 47 244 l 47 368 q 89 564 47 478 q 208 699 131 650 q 393 747 286 747 q 572 703 499 747 q 682 577 644 658 q 719 387 719 496 l 719 300 l 134 300 l 134 437 l 517 437 l 517 454 q 504 521 517 492 q 463 566 490 550 q 391 583 435 583 q 311 554 341 583 q 266 477 280 526 q 252 368 252 429 l 252 342 q 273 243 252 286 q 334 176 294 200 q 429 152 373 152 q 526 171 481 152 q 604 232 572 191 l 703 119 q 596 28 668 69 q 416 -14 524 -14 m 480 831 l 313 831 l 123 1042 l 346 1042 l 480 831 z "},"í":{"ha":385,"x_min":89,"x_max":447,"o":"m 294 0 l 89 0 l 89 734 l 294 734 l 294 0 m 224 1030 l 447 1030 l 258 819 l 92 819 l 224 1030 z "},"î":{"ha":385,"x_min":-71,"x_max":460,"o":"m 294 0 l 89 0 l 89 734 l 294 734 l 294 0 m 460 840 l 460 832 l 298 832 l 193 928 l 89 832 l -71 832 l -71 842 l 134 1031 l 252 1031 l 460 840 z "},"ï":{"ha":385,"x_min":-73,"x_max":456,"o":"m 294 0 l 89 0 l 89 734 l 294 734 l 294 0 m -72 914 q -44 977 -72 951 q 24 1002 -17 1002 q 94 977 66 1002 q 121 914 121 951 q 94 851 121 877 q 24 826 66 826 q -44 851 -17 826 q -72 914 -72 877 m 263 913 q 291 976 263 951 q 359 1002 318 1002 q 428 976 401 1002 q 456 913 456 951 q 428 851 456 876 q 359 825 401 825 q 291 851 318 825 q 263 913 263 876 z "},"ì":{"ha":385,"x_min":-52,"x_max":305,"o":"m 294 0 l 89 0 l 89 734 l 294 734 l 294 0 m 306 819 l 138 819 l -51 1030 l 172 1030 l 306 819 z "},"ñ":{"ha":780,"x_min":68,"x_max":709,"o":"m 273 0 l 68 0 l 68 734 l 261 734 l 273 577 l 273 0 m 189 389 q 225 580 189 500 q 326 704 261 661 q 477 747 391 747 q 598 720 547 747 q 680 632 650 693 q 709 465 709 570 l 709 0 l 504 0 l 504 467 q 491 537 504 512 q 452 571 477 562 q 391 581 427 581 q 326 567 353 581 q 280 528 298 553 q 254 467 262 502 q 245 391 245 432 l 189 389 z "},"ó":{"ha":785,"x_min":43,"x_max":741,"o":"m 43 374 q 83 565 43 481 q 202 699 124 650 q 391 747 280 747 q 582 699 504 747 q 701 565 661 650 q 741 374 741 481 l 741 359 q 701 168 741 253 q 583 35 661 83 q 393 -14 505 -14 q 202 35 281 -14 q 83 168 124 83 q 43 359 43 253 l 43 374 m 248 359 q 262 254 248 302 q 308 179 276 207 q 393 151 339 151 q 477 179 446 151 q 523 254 509 207 q 536 359 536 302 l 536 374 q 523 478 536 430 q 477 554 509 526 q 391 583 446 583 q 307 554 338 583 q 262 478 275 526 q 248 374 248 430 l 248 359 m 422 1042 l 644 1042 l 455 831 l 289 831 l 422 1042 z "},"ô":{"ha":785,"x_min":43,"x_max":741,"o":"m 43 374 q 83 565 43 481 q 202 699 124 650 q 391 747 280 747 q 582 699 504 747 q 701 565 661 650 q 741 374 741 481 l 741 359 q 701 168 741 253 q 583 35 661 83 q 393 -14 505 -14 q 202 35 281 -14 q 83 168 124 83 q 43 359 43 253 l 43 374 m 248 359 q 262 254 248 302 q 308 179 276 207 q 393 151 339 151 q 477 179 446 151 q 523 254 509 207 q 536 359 536 302 l 536 374 q 523 478 536 430 q 477 554 509 526 q 391 583 446 583 q 307 554 338 583 q 262 478 275 526 q 248 374 248 430 l 248 359 m 658 852 l 658 844 l 496 844 l 390 939 l 286 844 l 127 844 l 127 854 l 332 1042 l 450 1042 l 658 852 z "},"ö":{"ha":785,"x_min":43,"x_max":741,"o":"m 43 374 q 83 565 43 481 q 202 699 124 650 q 391 747 280 747 q 582 699 504 747 q 701 565 661 650 q 741 374 741 481 l 741 359 q 701 168 741 253 q 583 35 661 83 q 393 -14 505 -14 q 202 35 281 -14 q 83 168 124 83 q 43 359 43 253 l 43 374 m 248 359 q 262 254 248 302 q 308 179 276 207 q 393 151 339 151 q 477 179 446 151 q 523 254 509 207 q 536 359 536 302 l 536 374 q 523 478 536 430 q 477 554 509 526 q 391 583 446 583 q 307 554 338 583 q 262 478 275 526 q 248 374 248 430 l 248 359 m 126 926 q 154 988 126 962 q 222 1014 181 1014 q 292 988 264 1014 q 319 926 319 962 q 292 863 319 888 q 222 838 264 838 q 154 863 181 838 q 126 926 126 888 m 461 925 q 489 988 461 962 q 557 1013 516 1013 q 626 988 599 1013 q 654 925 654 962 q 626 862 654 888 q 557 837 599 837 q 489 862 516 837 q 461 925 461 888 z "},"ò":{"ha":785,"x_min":43,"x_max":741,"o":"m 43 374 q 83 565 43 481 q 202 699 124 650 q 391 747 280 747 q 582 699 504 747 q 701 565 661 650 q 741 374 741 481 l 741 359 q 701 168 741 253 q 583 35 661 83 q 393 -14 505 -14 q 202 35 281 -14 q 83 168 124 83 q 43 359 43 253 l 43 374 m 248 359 q 262 254 248 302 q 308 179 276 207 q 393 151 339 151 q 477 179 446 151 q 523 254 509 207 q 536 359 536 302 l 536 374 q 523 478 536 430 q 477 554 509 526 q 391 583 446 583 q 307 554 338 583 q 262 478 275 526 q 248 374 248 430 l 248 359 m 504 831 l 336 831 l 147 1042 l 370 1042 l 504 831 z "},"ø":{"ha":784,"x_min":43,"x_max":741,"o":"m 226 -97 l 113 -97 l 563 825 l 675 825 l 226 -97 m 43 374 q 83 565 43 481 q 202 699 124 650 q 391 747 280 747 q 582 699 504 747 q 701 565 661 650 q 741 374 741 481 l 741 359 q 701 168 741 253 q 583 35 661 83 q 393 -14 505 -14 q 202 35 281 -14 q 83 168 124 83 q 43 359 43 253 l 43 374 m 248 359 q 262 254 248 302 q 308 179 276 207 q 393 151 339 151 q 477 179 446 151 q 523 254 509 207 q 536 359 536 302 l 536 374 q 523 478 536 430 q 477 554 509 526 q 391 583 446 583 q 307 554 338 583 q 262 478 275 526 q 248 374 248 430 l 248 359 z "},"õ":{"ha":785,"x_min":43,"x_max":741,"o":"m 43 374 q 83 565 43 481 q 202 699 124 650 q 391 747 280 747 q 582 699 504 747 q 701 565 661 650 q 741 374 741 481 l 741 359 q 701 168 741 253 q 583 35 661 83 q 393 -14 505 -14 q 202 35 281 -14 q 83 168 124 83 q 43 359 43 253 l 43 374 m 248 359 q 262 254 248 302 q 308 179 276 207 q 393 151 339 151 q 477 179 446 151 q 523 254 509 207 q 536 359 536 302 l 536 374 q 523 478 536 430 q 477 554 509 526 q 391 583 446 583 q 307 554 338 583 q 262 478 275 526 q 248 374 248 430 l 248 359 z "},"ú":{"ha":779,"x_min":68,"x_max":709,"o":"m 504 734 l 709 734 l 709 0 l 517 0 l 504 177 l 504 734 m 586 330 q 556 154 586 231 q 465 31 526 76 q 312 -14 404 -14 q 136 50 203 -14 q 68 259 68 113 l 68 734 l 273 734 l 273 258 q 286 197 273 220 q 321 163 298 174 q 373 153 344 153 q 466 176 432 153 q 513 239 499 199 q 527 329 527 279 l 586 330 m 420 1042 l 643 1042 l 454 831 l 288 831 l 420 1042 z "},"û":{"ha":779,"x_min":68,"x_max":709,"o":"m 504 734 l 709 734 l 709 0 l 517 0 l 504 177 l 504 734 m 586 330 q 556 154 586 231 q 465 31 526 76 q 312 -14 404 -14 q 136 50 203 -14 q 68 259 68 113 l 68 734 l 273 734 l 273 258 q 286 197 273 220 q 321 163 298 174 q 373 153 344 153 q 466 176 432 153 q 513 239 499 199 q 527 329 527 279 l 586 330 m 656 852 l 656 844 l 494 844 l 389 939 l 285 844 l 125 844 l 125 854 l 330 1042 l 448 1042 l 656 852 z "},"ü":{"ha":779,"x_min":68,"x_max":709,"o":"m 504 734 l 709 734 l 709 0 l 517 0 l 504 177 l 504 734 m 586 330 q 556 154 586 231 q 465 31 526 76 q 312 -14 404 -14 q 136 50 203 -14 q 68 259 68 113 l 68 734 l 273 734 l 273 258 q 286 197 273 220 q 321 163 298 174 q 373 153 344 153 q 466 176 432 153 q 513 239 499 199 q 527 329 527 279 l 586 330 m 125 926 q 152 988 125 962 q 221 1014 180 1014 q 291 988 263 1014 q 318 926 318 962 q 291 863 318 888 q 221 838 263 838 q 152 863 180 838 q 125 926 125 888 m 460 925 q 487 988 460 962 q 556 1013 515 1013 q 625 988 597 1013 q 652 925 652 962 q 625 862 652 888 q 556 837 597 837 q 487 862 515 837 q 460 925 460 888 z "},"ù":{"ha":779,"x_min":68,"x_max":709,"o":"m 504 734 l 709 734 l 709 0 l 517 0 l 504 177 l 504 734 m 586 330 q 556 154 586 231 q 465 31 526 76 q 312 -14 404 -14 q 136 50 203 -14 q 68 259 68 113 l 68 734 l 273 734 l 273 258 q 286 197 273 220 q 321 163 298 174 q 373 153 344 153 q 466 176 432 153 q 513 239 499 199 q 527 329 527 279 l 586 330 m 502 831 l 334 831 l 145 1042 l 368 1042 l 502 831 z "},"ý":{"ha":702,"x_min":1,"x_max":701,"o":"m 482 734 l 701 734 l 408 -110 q 382 -169 399 -137 q 339 -231 366 -201 q 272 -278 313 -260 q 172 -296 231 -296 q 139 -295 153 -296 q 112 -291 125 -294 q 83 -283 99 -288 l 83 -129 q 98 -129 90 -129 q 113 -130 106 -130 q 197 -112 170 -130 q 237 -56 223 -94 l 290 85 l 482 734 m 374 215 l 401 -11 l 263 -20 l 1 734 l 221 734 l 374 215 m 386 1042 l 608 1042 l 419 831 l 253 831 l 386 1042 z "},"ÿ":{"ha":702,"x_min":1,"x_max":701,"o":"m 482 734 l 701 734 l 408 -110 q 382 -169 399 -137 q 339 -231 366 -201 q 272 -278 313 -260 q 172 -296 231 -296 q 139 -295 153 -296 q 112 -291 125 -294 q 83 -283 99 -288 l 83 -129 q 98 -129 90 -129 q 113 -130 106 -130 q 197 -112 170 -130 q 237 -56 223 -94 l 290 85 l 482 734 m 374 215 l 401 -11 l 263 -20 l 1 734 l 221 734 l 374 215 m 90 926 q 117 988 90 962 q 186 1014 144 1014 q 255 988 228 1014 q 283 926 283 962 q 255 863 283 888 q 186 838 228 838 q 117 863 144 838 q 90 926 90 888 m 425 925 q 452 988 425 962 q 521 1013 479 1013 q 590 988 562 1013 q 617 925 617 962 q 590 862 617 888 q 521 837 562 837 q 452 862 479 837 q 425 925 425 888 z "},"`":{"ha":463,"x_min":35,"x_max":391,"o":"m 391 831 l 224 831 l 35 1042 l 256 1042 l 391 831 z "},"´":{"ha":465,"x_min":67,"x_max":422,"o":"m 201 1042 l 422 1042 l 233 831 l 67 831 l 201 1042 z "},"ˆ":{"ha":694,"x_min":81,"x_max":612,"o":"m 612 852 l 612 844 l 450 844 l 344 939 l 240 844 l 81 844 l 81 854 l 286 1042 l 404 1042 l 612 852 z "},"˜":{"ha":671,"x_min":79,"x_max":594,"o":"m 594 1036 q 574 944 594 986 q 519 878 554 903 q 439 853 484 853 q 384 862 407 853 q 340 882 360 870 q 300 902 320 893 q 253 911 279 911 q 213 894 229 911 q 197 847 197 878 l 79 854 q 99 944 79 903 q 154 1012 119 986 q 234 1038 189 1038 q 284 1029 260 1038 q 329 1009 307 1020 q 373 989 351 998 q 420 980 395 980 q 460 996 444 980 q 477 1044 477 1013 l 594 1036 z "},"¯":{"ha":703,"x_min":116,"x_max":586,"o":"m 586 871 l 116 871 l 116 987 l 586 987 l 586 871 z "},"¨":{"ha":656,"x_min":63,"x_max":591,"o":"m 63 926 q 91 988 63 962 q 159 1014 118 1014 q 229 988 201 1014 q 256 926 256 962 q 229 863 256 888 q 159 838 201 838 q 91 863 118 838 q 63 926 63 888 m 398 925 q 426 988 398 962 q 494 1013 453 1013 q 563 988 536 1013 q 591 925 591 962 q 563 862 591 888 q 494 837 536 837 q 426 862 453 837 q 398 925 398 888 z "},"˚":{"ha":463,"x_min":81,"x_max":385,"o":"m 81 892 q 124 991 81 950 q 233 1032 168 1032 q 342 991 299 1032 q 385 892 385 950 q 342 796 385 836 q 233 756 299 756 q 124 796 168 756 q 81 892 81 836 m 161 892 q 180 842 161 863 q 233 821 200 821 q 286 842 267 821 q 306 892 306 863 q 286 944 306 922 q 233 966 267 966 q 180 944 200 966 q 161 892 161 922 z "},"¸":{"ha":375,"x_min":65,"x_max":334,"o":"m 240 5 l 232 -34 q 302 -67 270 -41 q 334 -151 334 -93 q 272 -271 334 -226 q 92 -315 211 -315 l 87 -198 q 125 -193 109 -198 q 151 -175 141 -187 q 160 -144 160 -163 q 138 -106 160 -117 q 65 -92 115 -96 l 86 5 l 240 5 z "},"«":{"ha":699,"x_min":49,"x_max":635,"o":"m 205 351 l 49 352 l 49 361 l 238 626 l 368 626 l 205 351 m 368 83 l 238 83 l 49 348 l 49 357 l 205 357 l 368 83 m 472 351 l 315 352 l 315 361 l 505 626 l 635 626 l 472 351 m 635 83 l 505 83 l 315 348 l 315 357 l 472 357 l 635 83 z "},"»":{"ha":699,"x_min":56,"x_max":646,"o":"m 219 357 l 376 356 l 376 347 l 187 82 l 56 82 l 219 357 m 187 625 l 376 360 l 376 351 l 219 351 l 56 625 l 187 625 m 489 357 l 646 356 l 646 347 l 457 82 l 326 82 l 489 357 m 457 625 l 646 360 l 646 351 l 489 351 l 326 625 l 457 625 z "},"ı":{"ha":385,"x_min":89,"x_max":294,"o":"m 294 0 l 89 0 l 89 734 l 294 734 l 294 0 z "},"€":{"ha":799,"x_min":60,"x_max":744,"o":"m 591 158 q 657 163 625 158 q 718 178 689 168 l 744 7 q 659 -7 703 -2 q 569 -13 614 -13 q 365 30 454 -13 q 225 156 276 72 q 174 365 174 240 l 174 599 q 226 820 174 731 q 371 955 278 909 q 585 1000 463 1000 q 665 995 625 1000 q 744 979 705 989 l 718 808 q 660 823 692 817 q 595 829 627 829 q 443 776 497 829 q 388 600 388 724 l 388 365 q 414 240 388 285 q 485 176 439 195 q 591 158 530 158 m 610 537 l 60 537 l 60 642 l 610 642 l 610 537 m 610 348 l 60 348 l 60 453 l 610 453 l 610 348 z "},"µ":{"ha":779,"x_min":45,"x_max":709,"o":"m 68 399 l 238 399 l 262 -282 l 45 -282 l 68 399 m 504 734 l 709 734 l 709 0 l 517 0 l 504 177 l 504 734 m 586 330 q 556 154 586 231 q 465 31 526 76 q 312 -14 404 -14 q 136 50 203 -14 q 68 259 68 113 l 68 734 l 273 734 l 273 258 q 286 197 273 220 q 321 163 298 174 q 373 153 344 153 q 466 176 432 153 q 513 239 499 199 q 527 329 527 279 l 586 330 z "},"ſ":{"ha":363,"x_min":76,"x_max":461,"o":"m 76 0 l 76 796 q 149 989 76 922 q 351 1056 222 1056 q 406 1052 379 1056 q 461 1042 433 1048 l 444 884 q 415 889 429 887 q 378 891 400 891 q 306 866 332 891 q 281 796 281 842 l 281 0 l 76 0 z "},"α":{"ha":783,"x_min":48,"x_max":779,"o":"m 48 363 q 81 562 48 475 q 178 698 114 649 q 335 747 242 747 q 469 697 417 747 q 550 560 521 646 q 592 366 579 474 l 592 348 q 550 164 580 245 q 469 34 521 82 q 334 -14 416 -14 q 178 33 241 -14 q 81 161 114 79 q 48 349 48 243 l 48 363 m 253 349 q 266 248 253 292 q 307 177 278 203 q 385 151 336 151 q 465 174 435 151 q 511 237 495 196 q 532 332 526 278 l 532 379 q 518 463 528 425 q 492 527 509 500 q 449 568 475 553 q 387 583 423 583 q 309 553 338 583 q 266 473 279 524 q 253 363 253 423 l 253 349 m 701 734 l 701 242 q 714 173 701 192 q 749 155 727 155 q 757 155 754 155 q 762 157 760 156 l 779 2 q 737 -11 757 -8 q 694 -14 717 -14 q 561 36 612 -14 q 496 193 510 85 l 496 577 l 524 734 l 701 734 z "},"װ":{"ha":893,"x_min":52,"x_max":783,"o":"m 569 0 l 569 648 l 498 648 l 498 813 l 782 813 l 782 0 l 569 0 m 123 0 l 123 648 l 52 648 l 52 813 l 336 813 l 336 0 l 123 0 z "},"ױ":{"ha":924,"x_min":52,"x_max":821,"o":"m 608 349 l 608 648 l 481 648 l 481 813 l 821 813 l 821 349 l 608 349 m 123 0 l 123 648 l 52 648 l 52 813 l 336 813 l 336 0 l 123 0 z "},"ײ":{"ha":955,"x_min":35,"x_max":852,"o":"m 640 349 l 640 648 l 512 648 l 512 813 l 852 813 l 852 349 l 640 349 m 162 349 l 162 648 l 35 648 l 35 813 l 375 813 l 375 349 l 162 349 z "},"ﭏ":{"ha":859,"x_min":44,"x_max":808,"o":"m 556 0 l 44 740 l 44 994 l 257 994 l 257 777 l 793 0 l 556 0 m 808 813 l 541 300 l 403 468 l 570 813 l 808 813 z "},"א":{"ha":934,"x_min":74,"x_max":883,"o":"m 638 0 l 74 813 l 311 813 l 875 0 l 638 0 m 106 0 l 106 269 q 150 465 106 394 q 291 570 193 536 l 366 464 q 312 361 312 429 l 312 0 l 106 0 m 883 813 l 615 300 l 477 468 l 645 813 l 883 813 z "},"ב":{"ha":756,"x_min":35,"x_max":735,"o":"m 35 0 l 35 166 l 428 166 l 640 173 l 735 159 l 735 0 l 35 0 m 428 50 l 428 525 q 396 617 428 587 q 298 648 364 648 l 80 648 l 80 813 l 314 813 q 554 735 469 813 q 640 515 640 658 l 640 50 l 428 50 z "},"ג":{"ha":616,"x_min":8,"x_max":551,"o":"m 60 -9 q 34 -8 48 -9 q 8 -5 20 -7 l 8 186 q 41 183 25 184 q 73 181 58 181 q 163 197 124 182 q 230 243 202 213 q 274 317 258 274 l 274 648 l 96 648 l 96 813 l 484 813 l 484 401 q 497 271 484 335 l 551 0 l 356 0 l 307 205 l 303 205 q 258 96 292 145 q 174 19 224 47 q 60 -9 123 -9 z "},"ד":{"ha":787,"x_min":41,"x_max":741,"o":"m 41 813 l 741 813 l 741 648 l 598 648 l 598 0 l 385 0 l 385 648 l 41 648 l 41 813 z "},"ה":{"ha":867,"x_min":96,"x_max":776,"o":"m 564 0 l 564 525 q 531 617 564 587 q 433 648 499 648 l 98 648 l 98 813 l 449 813 q 690 735 605 813 q 776 515 776 658 l 776 0 l 564 0 m 96 0 l 96 279 q 114 401 96 363 q 144 454 132 440 l 313 454 q 304 390 308 427 q 301 302 301 353 l 301 0 l 96 0 z "},"ו":{"ha":446,"x_min":52,"x_max":336,"o":"m 123 0 l 123 648 l 52 648 l 52 813 l 336 813 l 336 0 l 123 0 z "},"ז":{"ha":540,"x_min":45,"x_max":497,"o":"m 182 0 l 92 641 l 45 653 l 45 813 l 497 813 l 497 648 l 300 648 l 401 0 l 182 0 z "},"ח":{"ha":880,"x_min":111,"x_max":789,"o":"m 111 0 l 112 813 l 465 813 q 707 735 625 813 q 789 505 789 658 l 789 0 l 577 0 l 576 523 q 549 617 576 586 q 466 648 521 648 l 323 648 l 323 0 l 111 0 z "},"ט":{"ha":888,"x_min":111,"x_max":819,"o":"m 466 -16 q 279 27 359 -16 q 155 150 199 71 q 111 334 111 229 l 111 813 l 323 813 l 323 310 q 362 192 323 237 q 465 146 401 146 q 568 192 529 146 q 606 310 606 237 l 606 544 q 583 623 606 597 q 513 650 560 650 q 480 647 498 650 q 440 639 462 644 l 420 775 q 503 810 456 797 q 589 823 549 823 q 758 753 696 823 q 819 561 819 683 l 819 334 q 775 150 819 229 q 651 27 731 71 q 466 -16 572 -16 z "},"י":{"ha":477,"x_min":35,"x_max":375,"o":"m 162 349 l 162 648 l 35 648 l 35 813 l 375 813 l 375 349 l 162 349 z "},"ך":{"ha":725,"x_min":47,"x_max":614,"o":"m 405 -282 l 405 648 l 47 648 l 47 813 l 614 813 l 614 -282 l 405 -282 z "},"כ":{"ha":768,"x_min":43,"x_max":656,"o":"m 280 -13 q 167 -5 227 -13 q 43 18 108 3 l 76 174 q 252 151 180 151 q 398 196 352 152 q 444 324 444 239 l 444 648 l 75 648 l 75 813 l 656 813 l 656 361 q 610 146 656 229 q 479 26 564 64 q 280 -13 395 -12 z "},"ל":{"ha":755,"x_min":44,"x_max":709,"o":"m 44 648 l 44 1042 l 257 1042 l 257 813 l 635 813 l 635 648 l 44 648 m 709 677 l 439 0 l 214 0 l 548 813 l 709 813 l 709 677 z "},"ם":{"ha":915,"x_min":111,"x_max":804,"o":"m 111 0 l 111 813 l 804 813 l 804 0 l 111 0 m 323 166 l 592 166 l 592 648 l 323 648 l 323 166 z "},"מ":{"ha":924,"x_min":71,"x_max":833,"o":"m 105 0 l 157 458 q 185 562 164 513 q 235 640 206 612 q 239 645 237 642 q 243 648 242 647 l 243 651 q 179 636 216 647 q 117 616 142 625 l 71 770 q 189 803 123 789 q 322 826 254 818 q 454 834 391 834 q 736 739 640 834 q 833 460 833 644 l 833 0 l 477 0 l 477 165 l 621 165 l 620 489 q 587 615 620 570 q 495 661 555 661 q 405 615 437 661 q 364 485 372 570 l 315 0 l 105 0 z "},"ן":{"ha":443,"x_min":50,"x_max":332,"o":"m 123 -282 l 123 648 l 50 648 l 50 813 l 332 813 l 332 -282 l 123 -282 z "},"נ":{"ha":556,"x_min":41,"x_max":445,"o":"m 196 -14 q 121 -9 156 -14 q 41 5 85 -4 l 41 165 q 140 159 90 159 q 209 184 186 159 q 232 263 232 210 l 232 648 l 89 648 l 89 813 l 445 813 l 445 246 q 379 55 445 123 q 196 -14 313 -14 z "},"ס":{"ha":899,"x_min":40,"x_max":826,"o":"m 462 -16 q 273 31 355 -16 q 145 165 191 79 q 97 365 98 251 l 96 415 q 107 498 96 455 q 136 579 118 541 q 176 638 155 616 q 181 644 178 641 q 186 648 183 646 l 184 652 q 133 640 165 648 q 80 627 101 632 l 40 781 q 162 809 95 797 q 299 828 229 821 q 433 834 370 834 q 647 789 559 834 q 781 658 735 745 q 826 445 826 572 l 826 365 q 781 165 826 251 q 654 31 736 79 q 462 -16 572 -16 m 461 159 q 541 185 507 159 q 595 257 576 211 q 614 364 614 302 l 614 441 q 596 561 614 512 q 544 635 578 610 q 460 661 509 661 q 378 634 412 661 q 327 555 345 607 q 309 429 310 504 l 309 364 q 328 257 309 302 q 381 185 347 211 q 461 159 416 159 z "},"ע":{"ha":870,"x_min":41,"x_max":760,"o":"m 363 -20 q 211 -7 292 -20 q 41 40 130 6 l 85 195 q 219 154 157 168 q 332 140 281 140 q 489 190 431 140 q 547 336 547 239 l 547 813 l 760 813 l 760 347 q 709 145 760 227 q 570 21 659 63 q 363 -20 481 -20 m 77 813 l 291 813 l 410 239 q 433 169 419 200 q 474 113 446 137 l 314 113 q 246 170 279 130 q 201 260 213 210 l 77 813 z "},"ף":{"ha":871,"x_min":90,"x_max":761,"o":"m 761 813 l 761 -282 l 551 -282 l 551 648 l 356 648 q 340 595 347 623 q 331 539 334 567 q 328 483 328 511 l 328 415 q 362 410 342 411 q 399 408 382 408 l 399 264 q 298 258 348 256 q 203 273 248 260 q 122 307 158 286 l 121 413 q 127 500 121 456 q 145 583 134 544 q 174 648 157 621 l 90 648 l 90 813 l 761 813 z "},"פ":{"ha":922,"x_min":89,"x_max":811,"o":"m 416 -18 q 267 -4 348 -18 q 115 34 186 9 l 155 189 q 289 160 222 170 q 401 151 356 151 q 549 195 499 152 q 598 324 598 239 l 598 648 l 356 648 q 335 572 342 609 q 328 494 328 534 l 328 454 q 362 449 342 450 q 399 448 381 447 l 399 304 q 298 298 348 296 q 202 313 248 300 q 123 347 157 326 l 121 423 q 135 548 121 488 q 174 648 149 608 l 89 648 l 89 813 l 811 813 l 811 355 q 758 140 811 222 q 615 20 705 58 q 416 -18 526 -18 z "},"ץ":{"ha":804,"x_min":19,"x_max":785,"o":"m 387 -282 l 387 227 q 362 305 387 268 l 19 813 l 256 813 l 467 468 l 543 359 q 579 286 568 322 q 590 205 590 250 l 590 -282 l 387 -282 m 519 302 l 388 472 l 547 813 l 785 813 l 519 302 z "},"צ":{"ha":818,"x_min":19,"x_max":785,"o":"m 87 0 l 87 166 l 456 166 l 19 813 l 256 813 l 473 467 l 730 96 l 730 0 l 87 0 m 519 302 l 388 472 l 547 813 l 785 813 l 519 302 z "},"ק":{"ha":907,"x_min":111,"x_max":797,"o":"m 406 0 l 406 161 q 537 214 491 165 q 584 357 584 262 l 584 648 l 111 648 l 111 813 l 797 813 l 797 361 q 750 169 797 248 q 615 47 703 90 q 406 0 528 4 m 118 -282 l 118 285 q 136 407 118 368 q 166 459 155 446 l 336 459 q 327 396 330 433 q 323 307 323 359 l 323 -282 l 118 -282 z "},"ר":{"ha":690,"x_min":24,"x_max":600,"o":"m 387 0 l 387 537 q 357 620 387 591 q 269 648 327 648 l 24 648 l 24 813 l 285 813 q 516 738 433 813 q 600 526 600 662 l 600 0 l 387 0 z "},"ש":{"ha":1203,"x_min":111,"x_max":1092,"o":"m 317 813 l 317 196 q 441 156 374 172 q 566 141 508 141 q 731 168 659 141 q 845 250 804 194 q 886 393 886 306 l 886 813 l 1092 813 l 1092 370 q 1051 196 1092 270 q 939 73 1010 122 q 774 -1 868 24 q 574 -25 681 -25 q 342 2 463 -25 q 111 81 221 28 l 111 813 l 317 813 m 467 259 q 488 333 481 285 q 495 436 495 381 l 495 813 l 701 813 l 701 481 q 685 352 701 412 q 640 258 669 292 l 467 259 z "},"ת":{"ha":897,"x_min":7,"x_max":807,"o":"m 483 813 q 725 735 643 813 q 807 505 807 658 l 807 0 l 595 0 l 593 523 q 566 617 593 586 q 484 648 539 648 l 379 648 q 363 565 368 610 q 357 481 357 520 l 357 248 q 292 56 357 124 q 110 -12 227 -12 q 58 -9 81 -12 q 7 -3 34 -7 l 7 161 q 29 160 18 161 q 52 160 40 160 q 125 185 100 160 q 150 264 150 210 l 150 462 q 161 556 150 503 q 196 648 172 609 l 69 648 l 69 813 l 483 813 z "},"ײַ":{"ha":955,"x_min":35,"x_max":852,"o":"m 640 349 l 640 648 l 512 648 l 512 813 l 852 813 l 852 349 l 640 349 m 162 349 l 162 648 l 35 648 l 35 813 l 375 813 l 375 349 l 162 349 m 106 -214 l 106 -123 l 431 -123 l 431 -214 l 106 -214 z "},"ﬠ":{"ha":891,"x_min":41,"x_max":780,"o":"m 363 -27 q 41 39 219 -27 l 85 194 q 219 153 157 167 q 332 138 281 139 q 487 188 431 138 q 547 335 543 238 l 567 813 l 780 813 l 760 346 q 646 69 751 165 q 363 -27 541 -27 m 90 813 l 304 813 l 423 239 q 446 169 432 200 q 487 113 459 137 l 327 113 q 260 170 293 130 q 215 260 227 210 l 90 813 z "},"ﬡ":{"ha":1278,"x_min":74,"x_max":1227,"o":"m 918 0 l 74 813 l 354 813 l 1206 0 l 918 0 m 132 0 l 132 384 q 183 574 132 500 q 341 685 235 648 l 393 612 q 352 515 366 566 q 338 383 338 465 l 338 0 l 132 0 m 905 184 l 767 351 l 989 813 l 1227 813 l 905 184 z "},"ﬢ":{"ha":977,"x_min":41,"x_max":930,"o":"m 41 813 l 930 813 l 930 656 l 755 637 l 755 0 l 543 0 l 543 648 l 41 648 l 41 813 z "},"ﬣ":{"ha":1127,"x_min":96,"x_max":1037,"o":"m 96 0 l 96 270 q 102 347 96 313 q 116 401 109 380 q 124 425 123 422 l 314 452 l 323 443 q 317 397 321 427 q 308 333 312 368 q 304 268 304 298 l 304 0 l 96 0 m 824 0 l 824 537 q 794 620 824 591 q 707 648 764 648 l 98 648 l 98 813 l 721 813 q 954 738 870 813 q 1037 526 1037 662 l 1037 0 l 824 0 z "},"ﬤ":{"ha":1054,"x_min":43,"x_max":943,"o":"m 450 -26 q 257 -13 366 -26 q 43 24 149 0 l 74 190 q 278 157 180 168 q 444 146 376 146 q 663 198 596 146 q 730 347 729 250 l 730 648 l 75 648 l 75 813 l 943 813 l 943 346 q 882 138 942 220 q 712 14 822 55 q 450 -26 602 -26 z "},"ﬥ":{"ha":989,"x_min":44,"x_max":941,"o":"m 710 648 l 44 648 l 44 994 l 257 994 l 257 813 l 906 813 l 710 648 m 941 677 l 549 0 l 324 0 l 781 813 l 941 813 l 941 677 z "},"ﬦ":{"ha":1234,"x_min":102,"x_max":1127,"o":"m 102 0 l 102 813 l 1127 813 l 1127 0 l 102 0 m 315 166 l 915 166 l 915 648 l 315 648 l 315 166 z "},"ﬧ":{"ha":942,"x_min":24,"x_max":851,"o":"m 639 0 l 639 537 q 609 620 639 591 q 520 648 578 648 l 24 648 l 24 813 l 535 813 q 768 738 684 813 q 851 526 851 662 l 851 0 l 639 0 z "},"ﬨ":{"ha":1234,"x_min":7,"x_max":1143,"o":"m 820 813 q 1061 735 979 813 q 1143 505 1143 658 l 1143 0 l 931 0 l 930 523 q 903 617 930 586 q 820 648 876 648 l 379 648 q 363 565 368 610 q 357 481 357 520 l 357 248 q 292 56 357 124 q 110 -12 227 -12 q 58 -9 81 -12 q 7 -3 34 -7 l 7 161 q 29 160 18 161 q 52 160 40 160 q 125 185 100 160 q 150 264 150 210 l 150 462 q 161 556 150 503 q 196 648 172 609 l 69 648 l 69 813 l 820 813 z "},"שׁ":{"ha":1203,"x_min":111,"x_max":1092,"o":"m 317 813 l 317 196 q 441 156 374 172 q 566 141 508 141 q 731 168 659 141 q 845 250 804 194 q 886 393 886 306 l 886 813 l 1092 813 l 1092 370 q 1051 196 1092 270 q 939 73 1010 122 q 774 -1 868 24 q 574 -25 681 -25 q 342 2 463 -25 q 111 81 221 28 l 111 813 l 317 813 m 467 259 q 488 333 481 285 q 495 436 495 381 l 495 813 l 701 813 l 701 481 q 685 352 701 412 q 640 258 669 292 l 467 259 m 980 917 q 931 935 951 917 q 911 978 911 952 q 931 1023 911 1005 q 980 1040 951 1040 q 1029 1023 1010 1040 q 1048 978 1048 1005 q 1029 934 1048 951 q 980 917 1010 917 z "},"שׂ":{"ha":1203,"x_min":111,"x_max":1092,"o":"m 317 813 l 317 196 q 441 156 374 172 q 566 141 508 141 q 731 168 659 141 q 845 250 804 194 q 886 393 886 306 l 886 813 l 1092 813 l 1092 370 q 1051 196 1092 270 q 939 73 1010 122 q 774 -1 868 24 q 574 -25 681 -25 q 342 2 463 -25 q 111 81 221 28 l 111 813 l 317 813 m 467 259 q 488 333 481 285 q 495 436 495 381 l 495 813 l 701 813 l 701 481 q 685 352 701 412 q 640 258 669 292 l 467 259 m 205 917 q 157 935 176 917 q 137 978 137 952 q 157 1023 137 1005 q 205 1040 176 1040 q 255 1023 236 1040 q 275 978 275 1005 q 255 934 275 951 q 205 917 236 917 z "},"שּׁ":{"ha":1203,"x_min":111,"x_max":1092,"o":"m 317 813 l 317 196 q 441 156 374 172 q 566 141 508 141 q 731 168 659 141 q 845 250 804 194 q 886 393 886 306 l 886 813 l 1092 813 l 1092 370 q 1051 196 1092 270 q 939 73 1010 122 q 774 -1 868 24 q 574 -25 681 -25 q 342 2 463 -25 q 111 81 221 28 l 111 813 l 317 813 m 467 259 q 488 333 481 285 q 495 436 495 381 l 495 813 l 701 813 l 701 481 q 685 352 701 412 q 640 258 669 292 l 467 259 m 791 348 q 741 366 761 348 q 722 409 722 383 q 741 453 722 436 q 791 471 761 471 q 841 453 821 471 q 860 409 860 436 q 841 365 860 382 q 791 348 821 348 m 980 917 q 931 935 951 917 q 911 978 911 952 q 931 1023 911 1005 q 980 1040 951 1040 q 1029 1023 1010 1040 q 1048 978 1048 1005 q 1029 934 1048 951 q 980 917 1010 917 z "},"שּׂ":{"ha":1203,"x_min":111,"x_max":1092,"o":"m 317 813 l 317 196 q 441 156 374 172 q 566 141 508 141 q 731 168 659 141 q 845 250 804 194 q 886 393 886 306 l 886 813 l 1092 813 l 1092 370 q 1051 196 1092 270 q 939 73 1010 122 q 774 -1 868 24 q 574 -25 681 -25 q 342 2 463 -25 q 111 81 221 28 l 111 813 l 317 813 m 467 259 q 488 333 481 285 q 495 436 495 381 l 495 813 l 701 813 l 701 481 q 685 352 701 412 q 640 258 669 292 l 467 259 m 791 348 q 741 366 761 348 q 722 409 722 383 q 741 453 722 436 q 791 471 761 471 q 841 453 821 471 q 860 409 860 436 q 841 365 860 382 q 791 348 821 348 m 205 917 q 157 935 176 917 q 137 978 137 952 q 157 1023 137 1005 q 205 1040 176 1040 q 255 1023 236 1040 q 275 978 275 1005 q 255 934 275 951 q 205 917 236 917 z "},"אַ":{"ha":934,"x_min":74,"x_max":883,"o":"m 638 0 l 74 813 l 311 813 l 875 0 l 638 0 m 106 0 l 106 269 q 150 465 106 394 q 291 570 193 536 l 366 464 q 312 361 312 429 l 312 0 l 106 0 m 883 813 l 615 300 l 477 468 l 645 813 l 883 813 m 310 -214 l 310 -123 l 634 -123 l 634 -214 l 310 -214 z "},"אָ":{"ha":934,"x_min":74,"x_max":883,"o":"m 638 0 l 74 813 l 311 813 l 875 0 l 638 0 m 106 0 l 106 269 q 150 465 106 394 q 291 570 193 536 l 366 464 q 312 361 312 429 l 312 0 l 106 0 m 883 813 l 615 300 l 477 468 l 645 813 l 883 813 m 473 -397 q 424 -380 444 -397 q 404 -336 404 -362 q 413 -304 404 -317 q 432 -271 422 -291 q 445 -214 441 -252 l 329 -214 l 329 -123 l 616 -123 l 616 -214 l 500 -214 q 514 -271 504 -252 q 532 -304 524 -291 q 541 -336 541 -317 q 522 -380 541 -363 q 473 -397 503 -397 z "},"אּ":{"ha":934,"x_min":74,"x_max":883,"o":"m 638 0 l 74 813 l 311 813 l 875 0 l 638 0 m 106 0 l 106 269 q 150 465 106 394 q 291 570 193 536 l 366 464 q 312 361 312 429 l 312 0 l 106 0 m 883 813 l 615 300 l 477 468 l 645 813 l 883 813 m 422 50 q 372 67 392 50 q 353 111 353 85 q 372 155 353 138 q 422 172 392 172 q 472 155 452 172 q 491 111 491 138 q 472 67 491 84 q 422 50 452 50 z "},"בּ":{"ha":756,"x_min":35,"x_max":735,"o":"m 35 0 l 35 166 l 428 166 l 640 173 l 735 159 l 735 0 l 35 0 m 428 50 l 428 525 q 396 617 428 587 q 298 648 364 648 l 80 648 l 80 813 l 314 813 q 554 735 469 813 q 640 515 640 658 l 640 50 l 428 50 m 237 348 q 187 366 207 348 q 168 409 168 383 q 187 453 168 436 q 237 471 207 471 q 287 453 267 471 q 306 409 306 436 q 287 365 306 382 q 237 348 267 348 z "},"גּ":{"ha":616,"x_min":8,"x_max":551,"o":"m 60 -9 q 34 -8 48 -9 q 8 -5 20 -7 l 8 186 q 41 183 25 184 q 73 181 58 181 q 163 197 124 182 q 230 243 202 213 q 274 317 258 274 l 274 648 l 96 648 l 96 813 l 484 813 l 484 401 q 497 271 484 335 l 551 0 l 356 0 l 307 205 l 303 205 q 258 96 292 145 q 174 19 224 47 q 60 -9 123 -9 m 115 348 q 65 366 85 348 q 45 409 45 383 q 65 453 45 436 q 115 471 85 471 q 164 453 145 471 q 184 409 184 436 q 164 365 184 382 q 115 348 145 348 z "},"דּ":{"ha":787,"x_min":41,"x_max":741,"o":"m 41 813 l 741 813 l 741 648 l 598 648 l 598 0 l 385 0 l 385 648 l 41 648 l 41 813 m 197 348 q 148 366 168 348 q 128 409 128 383 q 148 453 128 436 q 197 471 168 471 q 247 453 228 471 q 267 409 267 436 q 247 365 267 382 q 197 348 228 348 z "},"הּ":{"ha":867,"x_min":96,"x_max":776,"o":"m 564 0 l 564 525 q 531 617 564 587 q 433 648 499 648 l 98 648 l 98 813 l 449 813 q 690 735 605 813 q 776 515 776 658 l 776 0 l 564 0 m 96 0 l 96 279 q 114 401 96 363 q 144 454 132 440 l 313 454 q 304 390 308 427 q 301 302 301 353 l 301 0 l 96 0 m 433 348 q 383 366 403 348 q 363 409 363 383 q 383 453 363 436 q 433 471 403 471 q 483 453 463 471 q 502 409 502 436 q 483 365 502 382 q 433 348 463 348 z "},"וּ":{"ha":446,"x_min":-52,"x_max":336,"o":"m 123 0 l 123 648 l 52 648 l 52 813 l 336 813 l 336 0 l 123 0 m 17 348 q -33 366 -13 348 q -52 409 -52 383 q -33 453 -52 436 q 17 471 -13 471 q 67 453 47 471 q 86 409 86 436 q 67 365 86 382 q 17 348 47 348 z "},"זּ":{"ha":540,"x_min":45,"x_max":507,"o":"m 182 0 l 92 641 l 45 653 l 45 813 l 497 813 l 497 648 l 300 648 l 401 0 l 182 0 m 439 348 q 389 366 409 348 q 370 409 370 383 q 389 453 370 436 q 439 471 409 471 q 489 453 469 471 q 508 409 508 436 q 489 365 508 382 q 439 348 469 348 z "},"טּ":{"ha":888,"x_min":111,"x_max":819,"o":"m 466 -16 q 279 27 359 -16 q 155 150 199 71 q 111 334 111 229 l 111 813 l 323 813 l 323 310 q 362 192 323 237 q 465 146 401 146 q 568 192 529 146 q 606 310 606 237 l 606 544 q 583 623 606 597 q 513 650 560 650 q 480 647 498 650 q 440 639 462 644 l 420 775 q 503 810 456 797 q 589 823 549 823 q 758 753 696 823 q 819 561 819 683 l 819 334 q 775 150 819 229 q 651 27 731 71 q 466 -16 572 -16 m 465 348 q 416 366 435 348 q 396 409 396 383 q 416 453 396 436 q 465 471 435 471 q 515 453 496 471 q 534 409 534 436 q 515 365 534 382 q 465 348 496 348 z "},"יּ":{"ha":477,"x_min":-32,"x_max":375,"o":"m 162 349 l 162 648 l 35 648 l 35 813 l 375 813 l 375 349 l 162 349 m 37 452 q -12 470 7 452 q -32 513 -32 488 q -12 558 -32 541 q 37 575 7 575 q 87 558 68 575 q 106 513 106 541 q 87 470 106 487 q 37 452 68 452 z "},"ךּ":{"ha":725,"x_min":47,"x_max":614,"o":"m 405 -282 l 405 648 l 47 648 l 47 813 l 614 813 l 614 -282 l 405 -282 m 207 390 q 157 408 177 390 q 138 451 138 425 q 157 495 138 478 q 207 513 177 513 q 257 495 237 513 q 276 451 276 478 q 257 407 276 425 q 207 390 237 390 z "},"כּ":{"ha":768,"x_min":43,"x_max":656,"o":"m 280 -13 q 167 -5 227 -13 q 43 18 108 3 l 76 174 q 252 151 180 151 q 398 196 352 152 q 444 324 444 239 l 444 648 l 75 648 l 75 813 l 656 813 l 656 361 q 610 146 656 229 q 479 26 564 64 q 280 -13 395 -12 m 246 348 q 197 366 216 348 q 177 409 177 383 q 197 453 177 436 q 246 471 216 471 q 296 453 277 471 q 315 409 315 436 q 296 365 315 382 q 246 348 277 348 z "},"לּ":{"ha":755,"x_min":44,"x_max":709,"o":"m 44 648 l 44 1042 l 257 1042 l 257 813 l 635 813 l 635 648 l 44 648 m 709 677 l 439 0 l 214 0 l 548 813 l 709 813 l 709 677 m 199 385 q 149 402 169 385 q 130 446 130 420 q 149 490 130 473 q 199 507 169 507 q 249 490 229 507 q 268 446 268 473 q 249 402 268 419 q 199 385 229 385 z "},"מּ":{"ha":924,"x_min":71,"x_max":833,"o":"m 105 0 l 157 458 q 185 562 164 513 q 235 640 206 612 q 239 645 237 642 q 243 648 242 647 l 243 651 q 179 636 216 647 q 117 616 142 625 l 71 770 q 189 803 123 789 q 322 826 254 818 q 454 834 391 834 q 736 739 640 834 q 833 460 833 644 l 833 0 l 477 0 l 477 165 l 621 165 l 620 489 q 587 615 620 570 q 495 661 555 661 q 405 615 437 661 q 364 485 372 570 l 315 0 l 105 0 m 489 348 q 439 366 459 348 q 420 409 420 383 q 439 453 420 436 q 489 471 459 471 q 539 453 519 471 q 558 409 558 436 q 539 365 558 382 q 489 348 519 348 z "},"נּ":{"ha":556,"x_min":24,"x_max":445,"o":"m 196 -14 q 121 -9 156 -14 q 41 5 85 -4 l 41 165 q 140 159 90 159 q 209 184 186 159 q 232 263 232 210 l 232 648 l 89 648 l 89 813 l 445 813 l 445 246 q 379 55 445 123 q 196 -14 313 -14 m 94 348 q 44 366 64 348 q 24 409 24 383 q 44 453 24 436 q 94 471 64 471 q 143 453 124 471 q 163 409 163 436 q 143 365 163 382 q 94 348 124 348 z "},"סּ":{"ha":899,"x_min":40,"x_max":826,"o":"m 462 -16 q 273 31 355 -16 q 145 165 191 79 q 97 365 98 251 l 96 415 q 107 498 96 455 q 136 579 118 541 q 176 638 155 616 q 181 644 178 641 q 186 648 183 646 l 184 652 q 133 640 165 648 q 80 627 101 632 l 40 781 q 162 809 95 797 q 299 828 229 821 q 433 834 370 834 q 647 789 559 834 q 781 658 735 745 q 826 445 826 572 l 826 365 q 781 165 826 251 q 654 31 736 79 q 462 -16 572 -16 m 461 159 q 541 185 507 159 q 595 257 576 211 q 614 364 614 302 l 614 441 q 596 561 614 512 q 544 635 578 610 q 460 661 509 661 q 378 634 412 661 q 327 555 345 607 q 309 429 310 504 l 309 364 q 328 257 309 302 q 381 185 347 211 q 461 159 416 159 m 462 348 q 412 366 432 348 q 393 409 393 383 q 412 453 393 436 q 462 471 432 471 q 512 453 492 471 q 531 409 531 436 q 512 365 531 382 q 462 348 492 348 z "},"ףּ":{"ha":871,"x_min":90,"x_max":761,"o":"m 761 813 l 761 -282 l 551 -282 l 551 648 l 356 648 q 340 595 347 623 q 331 539 334 567 q 328 483 328 511 l 328 415 q 362 410 342 411 q 399 408 382 408 l 399 264 q 298 258 348 256 q 203 273 248 260 q 122 307 158 286 l 121 413 q 127 500 121 456 q 145 583 134 544 q 174 648 157 621 l 90 648 l 90 813 l 761 813 m 440 457 q 391 475 410 457 q 371 518 371 492 q 391 563 371 545 q 440 580 410 580 q 490 563 471 580 q 509 518 509 545 q 490 474 509 492 q 440 457 471 457 z "},"פּ":{"ha":922,"x_min":89,"x_max":811,"o":"m 416 -18 q 267 -4 348 -18 q 115 34 186 9 l 155 189 q 289 160 222 170 q 401 151 356 151 q 549 195 499 152 q 598 324 598 239 l 598 648 l 356 648 q 335 572 342 609 q 328 494 328 534 l 328 454 q 362 449 342 450 q 399 448 381 447 l 399 304 q 298 298 348 296 q 202 313 248 300 q 123 347 157 326 l 121 423 q 135 548 121 488 q 174 648 149 608 l 89 648 l 89 813 l 811 813 l 811 355 q 758 140 811 222 q 615 20 705 58 q 416 -18 526 -18 m 469 470 q 419 488 439 470 q 399 531 399 505 q 419 575 399 558 q 469 593 439 593 q 518 575 499 593 q 538 531 538 558 q 518 487 538 505 q 469 470 499 470 z "},"צּ":{"ha":818,"x_min":19,"x_max":785,"o":"m 87 0 l 87 166 l 456 166 l 19 813 l 256 813 l 473 467 l 730 96 l 730 0 l 87 0 m 519 302 l 388 472 l 547 813 l 785 813 l 519 302 m 199 229 q 149 246 169 229 q 130 290 130 264 q 149 334 130 317 q 199 351 169 351 q 249 334 229 351 q 268 290 268 317 q 249 246 268 263 q 199 229 229 229 z "},"קּ":{"ha":907,"x_min":111,"x_max":797,"o":"m 406 0 l 406 161 q 537 214 491 165 q 584 357 584 262 l 584 648 l 111 648 l 111 813 l 797 813 l 797 361 q 750 169 797 248 q 615 47 703 90 q 406 0 528 4 m 118 -282 l 118 285 q 136 407 118 368 q 166 459 155 446 l 336 459 q 327 396 330 433 q 323 307 323 359 l 323 -282 l 118 -282 m 453 348 q 404 366 423 348 q 384 409 384 383 q 404 453 384 436 q 453 471 423 471 q 503 453 484 471 q 522 409 522 436 q 503 365 522 382 q 453 348 484 348 z "},"רּ":{"ha":690,"x_min":24,"x_max":600,"o":"m 387 0 l 387 537 q 357 620 387 591 q 269 648 327 648 l 24 648 l 24 813 l 285 813 q 516 738 433 813 q 600 526 600 662 l 600 0 l 387 0 m 193 348 q 144 366 163 348 q 124 409 124 383 q 144 453 124 436 q 193 471 163 471 q 243 453 224 471 q 262 409 262 436 q 243 365 262 382 q 193 348 224 348 z "},"שּ":{"ha":1203,"x_min":111,"x_max":1092,"o":"m 317 813 l 317 196 q 441 156 374 172 q 566 141 508 141 q 731 168 659 141 q 845 250 804 194 q 886 393 886 306 l 886 813 l 1092 813 l 1092 370 q 1051 196 1092 270 q 939 73 1010 122 q 774 -1 868 24 q 574 -25 681 -25 q 342 2 463 -25 q 111 81 221 28 l 111 813 l 317 813 m 467 259 q 488 333 481 285 q 495 436 495 381 l 495 813 l 701 813 l 701 481 q 685 352 701 412 q 640 258 669 292 l 467 259 m 791 348 q 741 366 761 348 q 722 409 722 383 q 741 453 722 436 q 791 471 761 471 q 841 453 821 471 q 860 409 860 436 q 841 365 860 382 q 791 348 821 348 z "},"תּ":{"ha":897,"x_min":7,"x_max":807,"o":"m 483 813 q 725 735 643 813 q 807 505 807 658 l 807 0 l 595 0 l 593 523 q 566 617 593 586 q 484 648 539 648 l 379 648 q 363 565 368 610 q 357 481 357 520 l 357 248 q 292 56 357 124 q 110 -12 227 -12 q 58 -9 81 -12 q 7 -3 34 -7 l 7 161 q 29 160 18 161 q 52 160 40 160 q 125 185 100 160 q 150 264 150 210 l 150 462 q 161 556 150 503 q 196 648 172 609 l 69 648 l 69 813 l 483 813 m 473 348 q 424 366 444 348 q 404 409 404 383 q 424 453 404 436 q 473 471 444 471 q 523 453 504 471 q 543 409 543 436 q 523 365 543 382 q 473 348 504 348 z "},"וֹ":{"ha":446,"x_min":52,"x_max":336,"o":"m 123 0 l 123 648 l 52 648 l 52 813 l 336 813 l 336 0 l 123 0 m 197 917 q 147 935 167 917 q 127 978 127 952 q 147 1023 127 1005 q 197 1040 167 1040 q 246 1023 227 1040 q 265 978 265 1005 q 246 934 265 951 q 197 917 227 917 z "},"בֿ":{"ha":756,"x_min":35,"x_max":735,"o":"m 35 0 l 35 166 l 428 166 l 640 173 l 735 159 l 735 0 l 35 0 m 428 50 l 428 525 q 396 617 428 587 q 298 648 364 648 l 80 648 l 80 813 l 314 813 q 554 735 469 813 q 640 515 640 658 l 640 50 l 428 50 m 148 927 l 148 1035 l 543 1035 l 543 927 l 148 927 z "},"כֿ":{"ha":768,"x_min":43,"x_max":656,"o":"m 280 -13 q 167 -5 227 -13 q 43 18 108 3 l 76 174 q 252 151 180 151 q 398 196 352 152 q 444 324 444 239 l 444 648 l 75 648 l 75 813 l 656 813 l 656 361 q 610 146 656 229 q 479 26 564 64 q 280 -13 395 -12 m 154 927 l 154 1035 l 549 1035 l 549 927 l 154 927 z "},"פֿ":{"ha":922,"x_min":89,"x_max":811,"o":"m 416 -18 q 267 -4 348 -18 q 115 34 186 9 l 155 189 q 289 160 222 170 q 401 151 356 151 q 549 195 499 152 q 598 324 598 239 l 598 648 l 356 648 q 335 572 342 609 q 328 494 328 534 l 328 454 q 362 449 342 450 q 399 448 381 447 l 399 304 q 298 298 348 296 q 202 313 248 300 q 123 347 157 326 l 121 423 q 135 548 121 488 q 174 648 149 608 l 89 648 l 89 813 l 811 813 l 811 355 q 758 140 811 222 q 615 20 705 58 q 416 -18 526 -18 m 251 927 l 251 1035 l 646 1035 l 646 927 l 251 927 z "},"₀":{"ha":519,"x_min":48,"x_max":470,"o":"m 470 -36 q 411 -200 470 -147 q 260 -252 353 -252 q 107 -200 166 -252 q 48 -36 48 -147 l 48 79 q 107 244 48 190 q 258 298 165 298 q 411 244 352 298 q 470 79 470 190 l 470 -36 m 328 84 q 309 160 328 138 q 258 182 290 182 q 210 160 227 182 q 192 84 192 138 l 192 -40 q 210 -116 192 -96 q 260 -137 228 -137 q 309 -116 290 -137 q 328 -40 328 -96 l 328 84 z "},"₁":{"ha":519,"x_min":94,"x_max":361,"o":"m 361 -245 l 219 -245 l 219 121 l 94 95 l 94 205 l 349 288 l 361 288 l 361 -245 z "},"₂":{"ha":519,"x_min":37,"x_max":471,"o":"m 471 -245 l 50 -245 l 50 -149 l 243 24 q 297 84 280 56 q 313 128 313 113 q 298 168 313 153 q 252 182 282 182 q 198 161 216 182 q 181 110 181 139 l 37 110 q 62 204 37 161 q 134 272 87 247 q 245 298 181 298 q 401 253 346 298 q 456 128 456 209 q 440 56 456 88 q 392 -7 425 24 q 308 -77 359 -38 l 237 -131 l 471 -131 l 471 -245 z "},"₃":{"ha":519,"x_min":32,"x_max":473,"o":"m 246 75 q 301 91 283 75 q 319 133 319 106 q 304 166 319 151 q 250 182 289 182 q 204 173 224 182 q 184 144 184 163 l 41 144 q 70 229 41 195 q 145 280 98 263 q 246 298 192 298 q 402 258 342 298 q 463 144 463 219 q 437 73 463 102 q 368 28 412 43 q 270 13 324 13 l 186 13 l 186 75 l 246 75 m 186 40 l 270 40 q 375 28 329 40 q 447 -14 420 16 q 473 -95 473 -43 q 408 -212 473 -170 q 245 -253 342 -253 q 146 -237 196 -253 q 64 -183 97 -220 q 32 -84 32 -146 l 176 -84 q 197 -121 176 -104 q 255 -138 218 -138 q 312 -120 294 -138 q 329 -81 329 -103 q 307 -34 329 -47 q 246 -20 286 -20 l 186 -20 l 186 40 z "},"₄":{"ha":519,"x_min":36,"x_max":478,"o":"m 478 -138 l 45 -138 l 36 -43 l 277 290 l 389 290 l 267 100 l 172 -22 l 478 -22 l 478 -138 m 420 -245 l 277 -245 l 277 290 l 420 290 l 420 -245 z "},"₅":{"ha":519,"x_min":45,"x_max":469,"o":"m 58 13 l 94 290 l 437 290 l 437 177 l 211 177 l 197 90 q 232 100 206 93 q 286 107 257 107 q 422 63 375 107 q 469 -64 469 18 q 446 -155 469 -112 q 377 -225 423 -198 q 258 -253 330 -253 q 156 -233 204 -253 q 77 -178 107 -214 q 45 -93 46 -142 l 189 -93 q 209 -128 190 -119 q 258 -138 227 -138 q 312 -115 299 -138 q 326 -64 326 -93 q 306 -11 326 -31 q 247 9 287 9 q 197 0 214 9 q 171 -16 180 -9 l 58 13 z "},"₆":{"ha":519,"x_min":47,"x_max":482,"o":"m 388 301 l 388 184 l 380 184 q 285 173 328 184 q 216 127 241 161 q 190 22 190 92 l 190 -59 q 209 -119 190 -100 q 266 -138 229 -138 q 318 -117 298 -138 q 338 -65 338 -96 q 319 -17 338 -31 q 265 -2 299 -2 q 220 -11 239 -2 q 192 -30 201 -19 q 182 -50 182 -41 l 145 -37 q 163 30 144 -4 q 220 88 182 64 q 312 112 257 112 q 438 63 394 112 q 482 -67 482 14 q 455 -162 482 -120 q 380 -229 427 -204 q 271 -253 332 -253 q 156 -230 207 -253 q 76 -159 106 -208 q 47 -33 47 -111 l 47 1 q 73 141 47 83 q 144 234 99 198 q 245 285 189 269 q 365 301 302 301 l 388 301 z "},"₇":{"ha":519,"x_min":34,"x_max":470,"o":"m 470 210 l 247 -245 l 96 -245 l 319 174 l 34 174 l 34 290 l 470 290 l 470 210 z "},"₈":{"ha":519,"x_min":48,"x_max":470,"o":"m 470 -97 q 411 -214 470 -176 q 260 -253 351 -253 q 109 -214 169 -253 q 48 -97 48 -176 q 109 15 48 -24 q 258 54 170 54 q 410 15 350 54 q 470 -97 470 -24 m 327 -83 q 308 -43 327 -56 q 258 -31 289 -31 q 211 -43 229 -31 q 192 -83 192 -56 q 211 -123 192 -108 q 260 -138 230 -138 q 309 -123 290 -138 q 327 -83 327 -108 m 458 145 q 402 42 458 80 q 260 4 347 4 q 117 42 173 4 q 60 145 60 80 q 116 259 60 220 q 258 298 172 298 q 402 259 346 298 q 458 145 458 220 m 314 136 q 300 170 314 158 q 258 182 287 182 q 218 170 232 182 q 204 136 204 158 q 218 99 204 113 q 260 85 232 85 q 301 99 288 85 q 314 136 314 113 z "},"₉":{"ha":519,"x_min":45,"x_max":468,"o":"m 156 -140 q 245 -131 208 -140 q 304 -93 283 -122 q 325 -2 325 -63 l 325 107 q 307 165 325 148 q 256 182 289 182 q 207 158 225 182 q 189 100 189 134 q 208 48 189 66 q 263 31 227 31 q 303 39 288 31 q 327 57 319 47 q 334 74 334 67 l 377 63 q 356 -5 378 27 q 299 -56 334 -37 q 224 -75 264 -75 q 129 -56 169 -75 q 67 3 89 -36 q 45 102 45 43 q 73 200 45 155 q 148 271 100 244 q 256 298 195 298 q 362 276 314 298 q 439 205 410 254 q 468 77 468 157 l 468 40 q 444 -104 468 -47 q 378 -194 420 -161 q 279 -240 335 -227 q 157 -254 222 -254 l 146 -254 l 146 -140 l 156 -140 z "},"⁰":{"ha":519,"x_min":48,"x_max":470,"o":"m 470 661 q 411 497 470 550 q 260 445 353 445 q 107 497 166 445 q 48 661 48 550 l 48 776 q 107 941 48 887 q 258 995 165 995 q 411 941 352 995 q 470 776 470 887 l 470 661 m 328 781 q 309 857 328 836 q 258 879 290 879 q 210 857 227 879 q 192 781 192 836 l 192 657 q 210 581 192 602 q 260 560 228 560 q 309 581 290 560 q 328 657 328 602 l 328 781 z "},"⁴":{"ha":519,"x_min":36,"x_max":478,"o":"m 478 559 l 45 559 l 36 654 l 277 987 l 389 987 l 267 798 l 172 676 l 478 676 l 478 559 m 420 452 l 277 452 l 277 987 l 420 987 l 420 452 z "},"⁵":{"ha":519,"x_min":45,"x_max":469,"o":"m 58 711 l 94 987 l 437 987 l 437 875 l 211 875 l 197 787 q 232 798 206 791 q 286 805 257 805 q 422 761 375 805 q 469 633 469 716 q 446 543 469 586 q 377 472 423 500 q 258 445 330 445 q 156 465 204 445 q 77 520 107 484 q 45 605 46 556 l 189 605 q 209 570 190 579 q 258 560 227 560 q 312 583 299 560 q 326 633 326 605 q 306 687 326 667 q 247 707 287 707 q 197 698 214 707 q 171 682 180 688 l 58 711 z "},"⁶":{"ha":519,"x_min":47,"x_max":482,"o":"m 388 999 l 388 882 l 380 882 q 285 870 328 882 q 216 825 241 859 q 190 720 190 790 l 190 639 q 209 579 190 597 q 266 560 229 560 q 318 581 298 560 q 338 633 338 602 q 319 681 338 667 q 265 696 299 696 q 220 687 239 696 q 192 668 201 679 q 182 648 182 656 l 145 661 q 163 728 144 694 q 220 786 182 762 q 312 810 257 810 q 438 761 394 810 q 482 631 482 711 q 455 536 482 578 q 380 469 427 494 q 271 445 332 445 q 156 468 207 445 q 76 539 106 490 q 47 665 47 587 l 47 699 q 73 839 47 781 q 144 931 99 896 q 245 983 189 967 q 365 999 302 999 l 388 999 z "},"⁷":{"ha":519,"x_min":34,"x_max":470,"o":"m 470 907 l 247 452 l 96 452 l 319 872 l 34 872 l 34 987 l 470 987 l 470 907 z "},"⁸":{"ha":519,"x_min":48,"x_max":470,"o":"m 470 601 q 411 484 470 522 q 260 445 351 445 q 109 484 169 445 q 48 601 48 522 q 109 713 48 673 q 258 752 170 752 q 410 713 350 752 q 470 601 470 673 m 327 615 q 308 654 327 642 q 258 667 289 667 q 211 654 229 667 q 192 615 192 642 q 211 575 192 590 q 260 560 230 560 q 309 575 290 560 q 327 615 327 590 m 458 843 q 402 740 458 778 q 260 702 347 702 q 117 740 173 702 q 60 843 60 778 q 116 957 60 918 q 258 996 172 996 q 402 957 346 996 q 458 843 458 918 m 314 833 q 300 868 314 856 q 258 880 287 880 q 218 868 232 880 q 204 833 204 856 q 218 797 204 811 q 260 783 232 783 q 301 797 288 783 q 314 833 314 811 z "},"⁹":{"ha":519,"x_min":45,"x_max":468,"o":"m 156 558 q 245 567 208 558 q 304 605 283 576 q 325 696 325 635 l 325 805 q 307 863 325 846 q 256 880 289 880 q 207 856 225 880 q 189 798 189 832 q 208 746 189 764 q 263 728 227 728 q 303 736 288 728 q 327 755 319 745 q 334 772 334 765 l 377 761 q 356 693 378 725 q 299 642 334 661 q 224 623 264 623 q 129 642 169 623 q 67 701 89 662 q 45 800 45 741 q 73 898 45 853 q 148 969 100 942 q 256 996 195 996 q 362 974 314 996 q 439 903 410 951 q 468 775 468 854 l 468 738 q 444 594 468 651 q 378 504 420 537 q 279 457 335 471 q 157 444 222 444 l 146 444 l 146 558 l 156 558 z "},"­":{"ha":407,"x_min":81,"x_max":468,"o":"m 468 340 l 81 340 l 81 506 l 468 506 l 468 340 z "},"׳":{"ha":315,"x_min":14,"x_max":274,"o":"m 141 584 l 14 634 q 64 735 45 679 q 84 843 84 792 l 84 983 l 274 983 l 273 862 q 256 760 273 812 q 210 662 239 708 q 141 584 180 616 z "},"״":{"ha":633,"x_min":31,"x_max":581,"o":"m 159 584 l 31 634 q 82 735 62 679 q 101 843 101 792 l 101 983 l 291 983 l 290 862 q 273 760 290 812 q 227 662 256 708 q 159 584 197 616 m 448 584 l 319 634 q 371 735 352 679 q 390 843 390 792 l 390 983 l 581 983 l 579 862 q 562 760 579 812 q 516 662 545 708 q 448 584 486 616 z "},"־":{"ha":401,"x_min":41,"x_max":360,"o":"m 360 648 l 41 648 l 41 813 l 360 813 l 360 648 z "},"‏":{"ha":0,"x_min":-682,"x_max":-187,"o":"m -187 928 l -594 928 l -594 795 l -187 795 l -187 928 m -384 687 l -574 903 l -682 862 l -542 687 l -384 687 m -543 1039 l -682 862 l -574 821 l -385 1039 l -543 1039 m -187 882 l -331 882 l -331 -136 l -187 -136 l -187 882 z "},"‎":{"ha":0,"x_min":-602,"x_max":-107,"o":"m -602 928 l -195 928 l -195 795 l -602 795 l -602 928 m -405 687 l -214 903 l -107 862 l -248 687 l -405 687 m -245 1039 l -107 862 l -215 821 l -404 1039 l -245 1039 m -602 882 l -458 882 l -458 -136 l -602 -136 l -602 882 z "},"‍":{"ha":0,"x_min":-612,"x_max":-174,"o":"m -465 810 l -321 810 l -321 -136 l -465 -136 l -465 810 m -279 607 l -612 947 l -507 1048 l -174 707 l -279 607 m -612 707 l -279 1048 l -174 947 l -507 607 l -612 707 z "},"‌":{"ha":0,"x_min":-465,"x_max":-321,"o":"m -465 810 l -321 810 l -321 -136 l -465 -136 l -465 810 z "},"₪":{"ha":1307,"x_min":90,"x_max":1197,"o":"m 399 0 l 399 520 l 595 520 l 595 172 l 778 171 q 936 221 872 170 q 1000 369 1000 272 l 1000 814 l 1196 814 l 1196 374 q 1147 173 1197 256 q 1002 44 1097 89 q 772 0 907 0 l 399 0 m 90 0 l 90 814 l 886 814 l 886 487 q 883 432 886 463 q 871 369 879 401 q 852 311 863 338 l 682 284 l 672 292 q 686 380 681 333 q 691 468 691 428 l 691 644 l 286 644 l 286 0 l 90 0 z "},"﬩":{"ha":749,"x_min":36,"x_max":713,"o":"m 277 818 l 470 818 l 470 550 l 713 550 l 713 374 l 36 374 l 36 550 l 277 550 l 277 818 z "},"̀":{"ha":0,"x_min":-612,"x_max":-255,"o":"m -255 831 l -422 831 l -612 1042 l -389 1042 l -255 831 z "},"́":{"ha":0,"x_min":-465,"x_max":-110,"o":"m -332 1042 l -110 1042 l -299 831 l -465 831 l -332 1042 z "},"̃":{"ha":0,"x_min":-632,"x_max":-118,"o":"m -118 1036 q -138 944 -118 986 q -193 878 -158 903 q -273 853 -228 853 q -329 862 -305 853 q -372 882 -352 870 q -412 902 -392 893 q -459 911 -433 911 q -499 894 -483 911 q -515 847 -515 878 l -633 854 q -613 944 -633 903 q -558 1012 -593 986 q -478 1038 -523 1038 q -428 1029 -452 1038 q -383 1009 -405 1020 q -339 989 -361 998 q -292 980 -317 980 q -252 996 -269 980 q -235 1044 -235 1013 l -118 1036 z "},"ְ":{"ha":0,"x_min":361,"x_max":498,"o":"m 429 -231 q 380 -214 400 -231 q 361 -170 361 -196 q 380 -125 361 -142 q 429 -108 400 -108 q 478 -125 459 -108 q 498 -170 498 -142 q 478 -214 498 -196 q 429 -231 459 -231 m 429 -416 q 380 -398 400 -416 q 361 -355 361 -380 q 380 -310 361 -328 q 429 -293 400 -293 q 478 -310 459 -293 q 498 -355 498 -328 q 478 -398 498 -380 q 429 -416 459 -416 z "},"ֱ":{"ha":0,"x_min":172,"x_max":688,"o":"m 241 -231 q 192 -214 212 -231 q 172 -170 172 -196 q 192 -125 172 -142 q 241 -108 212 -108 q 291 -125 271 -108 q 310 -170 310 -142 q 291 -214 310 -196 q 241 -231 271 -231 m 429 -231 q 380 -214 400 -231 q 361 -170 361 -196 q 380 -125 361 -142 q 429 -108 400 -108 q 478 -125 459 -108 q 498 -170 498 -142 q 478 -214 498 -196 q 429 -231 459 -231 m 620 -231 q 571 -214 591 -231 q 551 -170 551 -196 q 571 -125 551 -142 q 620 -108 591 -108 q 669 -125 650 -108 q 688 -170 688 -142 q 669 -214 688 -196 q 620 -231 650 -231 m 336 -389 q 286 -372 306 -389 q 267 -328 267 -355 q 286 -283 267 -301 q 336 -266 306 -266 q 385 -283 366 -266 q 404 -328 404 -301 q 385 -372 404 -355 q 336 -389 366 -389 m 620 -416 q 571 -398 591 -416 q 551 -355 551 -380 q 571 -310 551 -328 q 620 -293 591 -293 q 669 -310 650 -293 q 688 -355 688 -328 q 669 -398 688 -380 q 620 -416 650 -416 z "},"ֲ":{"ha":0,"x_min":174,"x_max":687,"o":"m 174 -214 l 174 -123 l 492 -123 l 492 -214 l 174 -214 m 618 -416 q 569 -398 589 -416 q 549 -355 549 -380 q 569 -310 549 -328 q 618 -293 589 -293 q 668 -310 648 -293 q 687 -355 687 -328 q 668 -398 687 -380 q 618 -416 648 -416 m 618 -231 q 569 -214 589 -231 q 549 -170 549 -196 q 569 -125 549 -142 q 618 -108 589 -108 q 668 -125 648 -108 q 687 -170 687 -142 q 668 -214 687 -196 q 618 -231 648 -231 z "},"ֳ":{"ha":0,"x_min":174,"x_max":687,"o":"m 333 -414 q 285 -396 304 -414 q 265 -352 265 -378 q 274 -319 265 -332 q 293 -283 283 -306 q 306 -214 302 -260 l 174 -214 l 174 -123 l 493 -123 l 493 -214 l 361 -214 q 374 -282 364 -260 q 393 -319 384 -305 q 401 -352 401 -332 q 382 -396 401 -378 q 333 -414 363 -414 m 618 -416 q 569 -398 589 -416 q 549 -355 549 -380 q 569 -310 549 -328 q 618 -293 589 -293 q 668 -310 648 -293 q 687 -355 687 -328 q 668 -398 687 -380 q 618 -416 648 -416 m 618 -231 q 569 -214 589 -231 q 549 -170 549 -196 q 569 -125 549 -142 q 618 -108 589 -108 q 668 -125 648 -108 q 687 -170 687 -142 q 668 -214 687 -196 q 618 -231 648 -231 z "},"ִ":{"ha":0,"x_min":361,"x_max":498,"o":"m 429 -231 q 380 -213 400 -231 q 361 -170 361 -195 q 380 -125 361 -142 q 429 -108 400 -108 q 478 -125 459 -108 q 498 -170 498 -142 q 478 -214 498 -196 q 429 -231 459 -231 z "},"ֵ":{"ha":0,"x_min":267,"x_max":591,"o":"m 523 -231 q 474 -213 494 -231 q 454 -170 454 -195 q 474 -125 454 -142 q 523 -108 494 -108 q 572 -125 553 -108 q 591 -170 591 -142 q 572 -214 591 -196 q 523 -231 553 -231 m 336 -231 q 286 -213 306 -231 q 267 -170 267 -195 q 286 -125 267 -142 q 336 -108 306 -108 q 385 -125 366 -108 q 404 -170 404 -142 q 385 -214 404 -196 q 336 -231 366 -231 z "},"ֶ":{"ha":0,"x_min":267,"x_max":591,"o":"m 523 -231 q 474 -213 494 -231 q 454 -170 454 -195 q 474 -125 454 -142 q 523 -108 494 -108 q 572 -125 553 -108 q 591 -170 591 -142 q 572 -214 591 -196 q 523 -231 553 -231 m 429 -389 q 380 -372 400 -389 q 361 -328 361 -355 q 380 -283 361 -301 q 429 -266 400 -266 q 478 -283 459 -266 q 498 -328 498 -301 q 478 -372 498 -355 q 429 -389 459 -389 m 336 -231 q 286 -213 306 -231 q 267 -170 267 -195 q 286 -125 267 -142 q 336 -108 306 -108 q 385 -125 366 -108 q 404 -170 404 -142 q 385 -214 404 -196 q 336 -231 366 -231 z "},"ַ":{"ha":0,"x_min":267,"x_max":591,"o":"m 267 -214 l 267 -123 l 591 -123 l 591 -214 l 267 -214 z "},"ָ":{"ha":0,"x_min":286,"x_max":573,"o":"m 430 -397 q 381 -380 401 -397 q 361 -336 361 -362 q 370 -304 361 -317 q 389 -271 379 -291 q 402 -214 399 -252 l 286 -214 l 286 -123 l 573 -123 l 573 -214 l 457 -214 q 471 -271 461 -252 q 490 -304 481 -291 q 498 -336 498 -317 q 479 -380 498 -363 q 430 -397 460 -397 z "},"ׇ":{"ha":0,"x_min":286,"x_max":573,"o":"m 430 -422 q 381 -405 401 -422 q 361 -361 361 -387 q 374 -322 361 -338 q 395 -277 386 -307 q 400 -248 399 -267 q 402 -214 402 -229 l 286 -214 l 286 -123 l 573 -123 l 573 -214 l 457 -214 q 459 -247 457 -227 q 465 -277 462 -266 q 486 -322 475 -307 q 498 -361 498 -338 q 479 -405 498 -387 q 430 -422 460 -422 z "},"ֹ":{"ha":0,"x_min":136,"x_max":274,"o":"m 205 917 q 156 935 176 917 q 136 978 136 952 q 156 1023 136 1005 q 205 1040 176 1040 q 255 1023 235 1040 q 274 978 274 1005 q 255 934 274 951 q 205 917 235 917 z "},"ֺ":{"ha":0,"x_min":136,"x_max":274,"o":"m 205 917 q 156 935 176 917 q 136 978 136 952 q 156 1023 136 1005 q 205 1040 176 1040 q 255 1023 235 1040 q 274 978 274 1005 q 255 934 274 951 q 205 917 235 917 z "},"ֻ":{"ha":0,"x_min":361,"x_max":690,"o":"m 429 -231 q 380 -213 400 -231 q 361 -170 361 -195 q 380 -125 361 -142 q 429 -108 400 -108 q 479 -125 460 -108 q 498 -170 498 -142 q 479 -214 498 -196 q 429 -231 460 -231 m 621 -545 q 572 -527 592 -545 q 552 -484 552 -509 q 572 -439 552 -456 q 621 -421 592 -421 q 670 -439 651 -421 q 690 -484 690 -456 q 670 -527 690 -510 q 621 -545 651 -545 m 526 -387 q 476 -370 496 -387 q 456 -326 456 -353 q 476 -282 456 -300 q 526 -264 496 -264 q 574 -283 555 -264 q 594 -326 594 -301 q 574 -370 594 -353 q 526 -387 555 -387 z "},"ּ":{"ha":0,"x_min":157,"x_max":296,"o":"m 227 347 q 177 365 197 347 q 157 408 157 382 q 177 453 157 435 q 227 470 197 470 q 276 453 257 470 q 296 408 296 435 q 276 365 296 382 q 227 347 257 347 z "},"ֿ":{"ha":0,"x_min":150,"x_max":545,"o":"m 150 927 l 150 1035 l 545 1035 l 545 927 l 150 927 z "},"ׁ":{"ha":0,"x_min":896,"x_max":1034,"o":"m 965 917 q 916 935 936 917 q 896 978 896 952 q 916 1023 896 1005 q 965 1040 936 1040 q 1014 1023 995 1040 q 1034 978 1034 1005 q 1014 934 1034 951 q 965 917 995 917 z "},"ׂ":{"ha":0,"x_min":125,"x_max":262,"o":"m 193 917 q 144 935 164 917 q 125 978 125 952 q 144 1023 125 1005 q 193 1040 164 1040 q 243 1023 224 1040 q 262 978 262 1005 q 243 934 262 951 q 193 917 224 917 z "},"ﬅ":{"ha":904,"x_min":18,"x_max":878,"o":"m 278 585 l 18 585 l 18 734 l 278 734 l 278 585 m 401 1056 q 590 1032 500 1056 q 747 983 679 1008 l 747 843 l 542 843 l 542 873 q 497 885 528 879 q 428 891 467 891 q 356 866 380 891 q 331 796 331 842 l 331 0 l 125 0 l 125 796 q 198 989 125 922 q 401 1056 271 1056 m 871 585 l 437 585 l 437 734 l 871 734 l 871 585 m 747 915 l 747 229 q 754 183 747 199 q 779 161 762 167 q 821 155 796 155 q 854 156 840 155 q 878 159 868 157 l 878 5 q 823 -9 852 -4 q 757 -14 793 -14 q 643 8 691 -14 q 568 79 594 31 q 542 206 542 127 l 542 915 l 747 915 z "},"ﬆ":{"ha":1186,"x_min":35,"x_max":1162,"o":"m 568 510 q 505 649 537 591 q 452 756 473 707 q 430 858 430 806 q 462 959 430 913 q 559 1032 494 1004 q 718 1059 623 1059 q 866 1038 806 1059 q 962 979 926 1016 q 1015 895 999 942 q 1031 795 1031 847 l 826 795 q 810 863 826 838 q 767 899 793 888 q 712 911 741 911 q 651 896 674 911 q 619 857 629 880 q 609 809 609 833 q 617 736 609 769 q 637 670 626 703 q 656 598 648 637 q 665 510 665 559 l 568 510 m 1154 585 l 723 585 l 723 734 l 1154 734 l 1154 585 m 1031 795 l 1031 233 q 1049 171 1031 188 q 1105 155 1067 155 q 1138 156 1123 155 q 1162 159 1152 157 l 1162 5 q 1107 -9 1137 -4 q 1041 -14 1077 -14 q 884 44 942 -14 q 826 232 826 101 l 826 795 l 1031 795 m 467 205 q 455 240 467 225 q 411 268 443 255 q 319 294 379 281 q 185 338 245 310 q 92 410 126 366 q 58 517 58 454 q 94 631 58 579 q 195 715 129 684 q 353 747 261 747 q 519 717 450 747 q 627 633 589 686 q 664 510 664 579 l 459 510 q 434 577 459 551 q 353 604 408 604 q 300 593 323 604 q 266 567 278 583 q 254 528 254 550 q 267 492 254 507 q 309 465 280 476 q 387 444 338 453 q 528 403 465 429 q 629 332 591 377 q 666 212 666 287 q 628 96 666 147 q 519 16 589 45 q 354 -14 449 -14 q 179 24 250 -14 q 71 118 108 61 q 35 235 35 176 l 229 235 q 249 176 231 199 q 295 142 267 153 q 359 131 324 131 q 418 140 394 131 q 454 166 442 149 q 467 205 467 182 z "}}}
